<?xml version="1.0" encoding="UTF-8"?>
<svg xmlns="http://www.w3.org/2000/svg" width="103" height="10" viewBox="0 0 103 10" fill="none">
  <path fill-rule="evenodd" clip-rule="evenodd" d="M21.4008 6.05172H23.5706C23.5706 6.28416 23.5706 6.56271 23.5244 6.79483C23.2934 8.0025 22.2777 8.93132 21.0316 8.97774C19.4619 8.97774 18.262 7.35224 18.262 5.12291C18.262 2.28974 19.9236 1.31419 21.0316 1.31419C21.7702 1.36061 22.5087 1.73233 22.9705 2.33616C23.2012 2.66114 23.3857 3.03285 23.4783 3.45067H24.4937V0.524653H23.5244V1.96445C22.9705 0.989215 21.9547 0.338954 20.8009 0.385379C18.7234 0.385379 17.0617 2.52186 17.0617 5.21576C17.0617 7.90934 18.7234 9.99971 20.8468 9.99971C21.5856 9.99971 22.3242 9.72116 22.9243 9.21018C23.2012 8.93131 23.4318 8.65277 23.6167 8.32779V9.76759H24.6321V5.21576H21.4469L21.4008 6.05172Z" fill="#798291"></path>
  <path fill-rule="evenodd" clip-rule="evenodd" d="M30.401 7.35222C30.2623 8.37419 29.3853 9.11699 28.3699 9.16373C27.6314 9.16373 26.9851 8.60631 26.9387 7.81678C26.9387 6.93439 27.6314 6.56268 29.7548 6.28413L30.401 6.19097V7.35222ZM31.3248 8.97833V5.1235C31.3248 3.35842 30.1246 2.70815 28.6939 2.70815C28.0473 2.70815 27.3549 2.89385 26.8471 3.31199C26.4318 3.68339 26.1547 4.19438 26.0624 4.75179H27.1239C27.3088 3.82298 27.8166 3.498 28.7859 3.498C29.7554 3.498 30.3553 4.00868 30.3553 4.79821V5.49521L29.7093 5.54164C26.9393 5.82019 25.7855 6.47045 25.7855 7.8174V7.95667C25.8778 9.11761 26.8932 10.0467 28.0473 9.95388C29.0169 9.95388 29.94 9.44289 30.4017 8.56051V9.81429H32.3867L32.2941 8.97833H31.3248Z" fill="#798291"></path>
  <path fill-rule="evenodd" clip-rule="evenodd" d="M42.911 4.51865C42.911 3.31098 42.3108 2.61429 41.2496 2.61429C40.6956 2.61429 40.1878 2.84642 39.7725 3.21813C39.4954 3.49668 39.3105 3.77554 39.1256 4.10052C38.9414 3.12528 38.4338 2.66072 37.5104 2.66072C36.2175 2.66072 35.6177 3.63627 35.2944 4.10052L35.2486 2.75357H33.2172V3.58953H34.2326V8.97732H33.2172V9.81328H36.2175V8.97732H35.2021V5.49389C35.2021 4.84394 35.9868 3.49668 37.0484 3.49668C37.7411 3.49668 38.0641 3.86839 38.0641 4.75078V9.76686H40.0955V8.9309H39.0795V5.40104C39.0795 4.89037 39.7257 3.45057 40.9263 3.45057C41.6184 3.45057 41.942 3.91482 41.942 4.89037V9.76686H43.8802V8.9309H42.911V4.51865Z" fill="#798291"></path>
  <path fill-rule="evenodd" clip-rule="evenodd" d="M48.8659 9.02485C47.7579 8.93168 46.8809 8.00287 46.8809 6.84162L46.8348 5.63427C46.8348 4.61229 47.8502 3.49747 48.8659 3.49747C50.0197 3.49747 50.8047 4.51944 50.8047 6.23779C50.8047 7.95614 50.0658 9.02485 48.8659 9.02485ZM49.1428 2.70808C47.9425 2.70808 47.1578 3.72974 46.881 4.24073V0.200195H44.9422V1.03616H45.8653V8.97826H44.896V9.81453H46.881V8.51369C47.2963 9.07111 47.8964 9.90738 49.1428 9.90738C50.6199 9.90738 51.9121 8.28157 51.9121 6.37752C51.9121 4.33358 50.7122 2.70808 49.1428 2.70808Z" fill="#798291"></path>
  <path fill-rule="evenodd" clip-rule="evenodd" d="M54.4902 0.200232H52.5052V0.989768H53.4745V8.97861H52.4588V9.81457H55.4133V8.97861H54.4902V0.200232Z" fill="#798291"></path>
  <path fill-rule="evenodd" clip-rule="evenodd" d="M57.3531 5.72774C57.3531 5.49562 57.4454 5.26349 57.4915 5.03137C57.7226 4.19509 58.4608 3.59157 59.3381 3.54483C59.7537 3.49841 60.1689 3.68442 60.4922 3.96297C60.9536 4.47396 61.1846 5.07779 61.1846 5.72774H57.3531ZM59.2445 2.70804C57.5363 2.70804 56.1977 4.28743 56.1977 6.33075C56.1977 8.46755 57.5363 9.95377 59.429 9.95377C60.3066 9.95377 61.0907 9.58206 61.645 8.9318C61.9218 8.60651 62.1061 8.28154 62.1987 7.86371L61.0445 7.91014C60.6751 8.7461 60.1676 9.1175 59.3829 9.1175C58.9212 9.1175 58.4595 8.9318 58.0903 8.60651C57.6286 8.14226 57.3979 7.53842 57.306 6.51676H62.3371C62.3371 4.05499 60.9523 2.70804 59.2445 2.70804Z" fill="#798291"></path>
  <path fill-rule="evenodd" clip-rule="evenodd" d="M66.4919 6.42337L67.6918 2.33641L68.8918 6.42337H66.4919ZM68.7984 0.617877H66.5831L64.0903 8.32785H63.3979V9.81408H65.5213L66.1211 7.81718H69.3524L69.9526 9.81408H72.0298V8.32785H71.3377L68.7984 0.617877Z" fill="#798291"></path>
  <path fill-rule="evenodd" clip-rule="evenodd" d="M79.3241 4.14906H80.0165L79.0934 8.18959L77.9393 2.80179H76.1386L74.9848 8.28244L74.0158 4.14906H74.7076V2.80179H71.9383V4.14906H72.5381L74.0617 9.76897H75.9082L77.0159 4.93859L78.17 9.76897H80.0165L81.4936 4.14906H82.0938V2.80179H79.3241V4.14906Z" fill="#798291"></path>
  <path fill-rule="evenodd" clip-rule="evenodd" d="M87.0327 7.21347C86.9869 8.04974 86.2942 8.70001 85.4633 8.70001C84.7706 8.70001 84.3095 8.32829 84.3095 7.77088C84.3095 6.79596 85.371 6.65637 86.9869 6.5171H87.0327V7.21347ZM88.6946 5.16993C88.6946 3.59085 87.6792 2.70815 85.7407 2.70815C84.0788 2.70815 82.9708 3.59085 82.8785 4.98391L84.5402 5.03034V4.98391C84.5866 4.33397 84.9096 3.91583 85.7869 3.91583C86.6638 3.91583 87.033 4.2408 87.033 5.3092C84.8176 5.4949 82.5091 5.72734 82.5091 7.77066C82.5091 9.02507 83.5712 9.95388 84.9557 9.95388C85.7869 9.95388 86.5719 9.62859 87.0791 8.97833V9.81429H89.2486V8.46735H88.6485L88.6946 5.16993Z" fill="#798291"></path>
  <path fill-rule="evenodd" clip-rule="evenodd" d="M92.5224 3.91527V2.80044H90.168V4.14739H90.8607V8.42036H90.168V9.76731H93.3993V8.42036H92.5685V5.72678C92.6146 4.8905 93.3535 4.24024 94.2305 4.28698C94.507 4.28698 94.7842 4.33341 95.0613 4.37983V2.75402C94.7842 2.70759 94.5535 2.66117 94.2766 2.66117C93.4913 2.66117 92.9834 3.03257 92.5224 3.91527Z" fill="#798291"></path>
  <path fill-rule="evenodd" clip-rule="evenodd" d="M97.2301 5.40087C97.3685 4.65776 98.0148 4.05392 98.7998 4.05392H98.8456C99.5845 4.05392 100.231 4.65776 100.231 5.4473L97.2301 5.40087ZM101.477 4.05409C100.877 3.12528 99.861 2.61429 98.7998 2.61429C96.861 2.61429 95.4297 4.14694 95.4297 6.28343C95.4297 8.42022 96.861 9.95287 98.7998 9.95287C100.461 9.95287 101.708 9.02406 102.031 7.4911L100.277 7.53752C100.092 8.14136 99.4919 8.60561 98.8456 8.5595C98.5226 8.5595 97.3685 8.46665 97.1843 6.65514H102.169C102.215 5.72633 101.939 4.84363 101.477 4.05409Z" fill="#798291"></path>
  <path fill-rule="evenodd" clip-rule="evenodd" d="M5.30558 8.32569H3.38359V5.80463H5.12382C6.11022 5.80463 6.7593 6.31437 6.7593 7.08477C6.7593 7.79024 6.12394 8.32569 5.30558 8.32569ZM3.38359 2.12026H5.05929C5.9029 2.12026 6.50023 2.56443 6.50023 3.17862C6.50023 3.8706 5.96744 4.35398 5.18835 4.35398H3.38359V2.12026ZM7.12352 4.95519C8.00642 4.4718 8.3054 4.01477 8.3054 3.08721C8.3054 1.87201 7.51384 1.12765 6.90374 0.866349C6.46198 0.670612 5.87712 0.617914 4.31989 0.617914H0.827281V2.12045H1.51533V8.32538H0.800781V9.82791H5.69537C7.46178 9.82791 8.64272 8.7959 8.64272 7.25416C8.64272 6.03958 8.16292 5.3865 7.12352 4.95519Z" fill="#798291"></path>
  <path fill-rule="evenodd" clip-rule="evenodd" d="M11.3222 5.46542C11.5423 4.60343 12.1269 4.0937 12.8795 4.0937C13.6978 4.0937 14.2306 4.57739 14.3469 5.46542H11.3222ZM15.5541 4.0545C14.9568 3.15361 13.9832 2.6307 12.8796 2.6307C10.9323 2.6307 9.49141 4.19848 9.49141 6.31489C9.49141 8.45702 10.9196 9.98559 12.8671 9.98559C14.5553 9.98559 15.8141 9.04486 16.1262 7.52946H14.3205C14.049 8.24811 13.5941 8.57465 12.9061 8.57465C12.5815 8.57465 11.3997 8.48305 11.2313 6.66747H16.2425C16.2169 5.96168 16.1908 5.03475 15.5541 4.0545Z" fill="#798291"></path>
</svg>
