<svg width="113" height="30" viewBox="0 0 113 30" fill="none" xmlns="http://www.w3.org/2000/svg">
<g id="SVG">
<path id="Vector" d="M17.1687 29.9956C16.4626 29.7895 15.7256 29.6658 15.0545 29.372C12.2466 28.135 10.8601 25.3435 11.4188 22.1562C12.0208 18.7154 14.6587 16.5166 18.1594 16.4867C19.5448 16.4754 20.8653 16.7001 22.0765 17.3671C23.8289 18.3298 24.8762 19.8317 25.1566 21.8068C25.5215 24.3725 24.9504 26.6517 22.9125 28.4185C22.0084 29.2019 20.9385 29.6462 19.7736 29.8802C19.6242 29.9111 19.4768 29.9565 19.3283 29.9956H17.1687ZM18.3088 28.2597C19.9705 28.2597 21.2797 27.4969 21.9992 26.0022C22.8682 24.1962 22.8816 22.3356 22.0167 20.5389C21.325 19.0957 20.1117 18.3113 18.4903 18.2536C16.8018 18.1927 15.4689 18.8473 14.6566 20.3626C13.9567 21.6666 13.8825 23.0768 14.0959 24.5209C14.4278 26.7527 16.1132 28.2597 18.3088 28.2597Z" fill="#798291"/>
<path id="Vector_2" d="M92.2135 29.9962C91.461 29.7715 90.6673 29.6282 89.9632 29.3066C87.7697 28.3087 86.6265 26.5419 86.4193 24.1586C86.2409 22.1053 86.7038 20.2415 88.0944 18.6654C89.2437 17.3645 90.7353 16.6955 92.4238 16.5265C94.3463 16.3347 96.21 16.6089 97.8098 17.7985C99.9838 19.4148 100.61 21.6733 100.236 24.236C99.7849 27.3367 97.7521 29.3519 94.67 29.9055C94.5707 29.9288 94.4732 29.9591 94.3782 29.9962H92.2135ZM93.3268 28.2603C94.9514 28.2603 96.2925 27.5531 96.9914 26.1306C98.0026 24.069 98.0119 21.9774 96.7512 20.0044C95.2112 17.5923 91.3548 17.6387 89.8663 20.0797C88.8262 21.7857 88.7747 23.6175 89.419 25.4781C90.0272 27.2356 91.4734 28.2541 93.3268 28.2603Z" fill="#798291"/>
<path id="Vector_3" d="M75.101 29.9957C74.3361 29.8112 73.562 29.6586 72.8105 29.4319C72.1353 29.2257 72.1384 29.1741 72.3982 28.5216C72.561 28.1093 72.7218 27.7032 72.8857 27.2898C73.5104 27.5547 74.0629 27.8269 74.6381 28.0248C75.5092 28.3227 76.407 28.4423 77.3244 28.2382C78.0244 28.0825 78.5882 27.7382 78.7676 27.0074C78.9593 26.2435 78.7748 25.525 78.0924 25.0993C77.311 24.6117 76.4699 24.2138 75.636 23.818C74.802 23.4222 73.9485 23.0294 73.3465 22.2862C72.026 20.6524 72.5414 18.266 74.4248 17.2104C75.8463 16.4105 77.3832 16.3951 78.9336 16.56C79.5407 16.6249 80.1334 16.8332 80.7292 16.9898C81.0179 17.0661 81.0993 17.2434 80.9694 17.5352C80.7488 18.0341 80.5571 18.5443 80.3272 19.1041C80.0819 18.967 79.8953 18.8577 79.7087 18.7556C78.6336 18.1835 77.5069 18.0042 76.3246 18.3505C75.7133 18.5299 75.2309 18.8721 75.1154 19.5494C75 20.2266 75.2752 20.7936 75.8617 21.1183C76.7307 21.5986 77.643 22.0007 78.5336 22.4419C78.8717 22.6089 79.2088 22.7789 79.5345 22.9696C81.0004 23.8273 81.522 25.1344 81.2941 26.7713C81.088 28.234 80.1932 29.1298 78.8532 29.6226C78.4408 29.7751 78.0007 29.873 77.5739 29.9957H75.101Z" fill="#798291"/>
<path id="Vector_4" d="M65.5149 29.9958C64.717 29.8026 63.9195 29.6099 63.1223 29.4175C62.6616 29.3061 62.5039 29.0701 62.7389 28.6093C62.9389 28.2135 62.9852 27.6094 63.2893 27.4393C63.5336 27.3043 64.0645 27.6836 64.4676 27.8352C65.5252 28.232 66.6003 28.4856 67.7373 28.2331C68.4589 28.0712 69.0052 27.6898 69.1805 26.9332C69.3485 26.1941 69.1434 25.5199 68.5053 25.121C67.7105 24.6241 66.8415 24.2448 66.0117 23.8026C65.4376 23.4933 64.8201 23.2377 64.3191 22.8367C62.3461 21.2575 62.6482 18.3887 64.8768 17.1672C66.255 16.4147 67.7425 16.4003 69.2403 16.5487C69.832 16.6054 70.4133 16.7868 70.9927 16.9342C71.3545 17.026 71.4978 17.2383 71.3205 17.6238C71.1081 18.0867 70.9318 18.567 70.7133 19.1041C70.4855 18.9742 70.3154 18.8722 70.1402 18.7784C69.0877 18.2135 67.9868 18.0083 66.8117 18.3258C66.1746 18.498 65.6633 18.8155 65.5334 19.5123C65.3932 20.2617 65.7056 20.8524 66.3519 21.1956C67.258 21.6791 68.2074 22.0904 69.1289 22.5357C70.0505 22.981 70.9731 23.514 71.4019 24.5252C72.208 26.4209 71.7369 29.1639 68.428 29.869C68.2795 29.9009 68.1363 29.9504 67.9899 29.9916L65.5149 29.9958Z" fill="#798291"/>
<path id="Vector_5" d="M5.83052 29.9956C5.14193 29.7894 4.42861 29.6513 3.76888 29.3771C1.39799 28.3844 -0.202871 26.0991 0.0208175 23.0685C0.209458 20.5223 1.31037 18.5576 3.57921 17.366C5.88206 16.1558 8.30552 16.2578 10.7403 16.9608C10.8376 16.9951 10.9309 17.0396 11.0186 17.0938C11.0751 17.1337 11.1282 17.1782 11.1774 17.2268L10.4166 19.2575C9.19924 18.3298 7.89216 18.1102 6.49952 18.3102C4.54097 18.5937 3.28646 19.7245 2.80713 21.6294C2.36387 23.3818 2.52056 25.092 3.69982 26.5598C5.07287 28.27 7.70249 28.7472 9.81258 27.7082C10.5733 27.333 10.5022 27.2422 10.8496 28.0772C11.2887 29.1317 11.3021 29.1493 10.1868 29.5204C9.56828 29.7265 8.92917 29.843 8.29934 29.9997L5.83052 29.9956Z" fill="#798291"/>
<path id="Vector_6" d="M28.6795 20.0722C28.4836 22.5502 28.2888 25.0287 28.095 27.5075C28.0497 28.1064 28.0177 28.7063 28.0053 29.3062C27.9981 29.6557 27.8579 29.8031 27.5074 29.7918C27.0611 29.7773 26.6137 29.7815 26.1674 29.7918C25.8437 29.8 25.7004 29.699 25.7468 29.3382C25.9313 27.8951 26.1127 26.4447 26.2622 24.9943C26.4117 23.4924 26.5333 21.9874 26.6395 20.4814C26.7117 19.4506 26.7312 18.4249 26.7838 17.3972C26.8189 16.7014 26.8498 16.6756 27.5353 16.6756C28.1703 16.6756 28.8063 16.69 29.4413 16.6704C29.766 16.6612 29.9196 16.7735 30.0288 17.0921C31.1143 20.2928 32.2193 23.4831 33.3213 26.6787C33.3858 26.8264 33.4587 26.9703 33.5398 27.1096C33.8841 26.22 34.1985 25.4499 34.482 24.6676C35.3819 22.1833 36.2828 19.7 37.1549 17.2054C37.3023 16.7818 37.5188 16.6529 37.9404 16.6735C38.5743 16.7024 39.2114 16.6911 39.8464 16.6735C40.1556 16.6674 40.2587 16.7849 40.2721 17.0951C40.3628 19.599 40.4484 22.1029 40.5813 24.6036C40.6618 26.1499 40.7978 27.6848 40.9483 29.2217C40.9926 29.6753 40.8535 29.8113 40.4329 29.7949C39.9361 29.7742 39.4361 29.7691 38.9392 29.7949C38.5073 29.8175 38.3805 29.6402 38.3775 29.2238C38.363 27.3683 38.3318 25.5145 38.2836 23.6625C38.2527 22.5204 38.1806 21.3792 38.1228 20.2381L37.9775 20.2072C37.9115 20.3474 37.8352 20.4845 37.7816 20.6288C36.7189 23.5151 35.652 26.3911 34.6067 29.2784C34.4655 29.6681 34.2645 29.8412 33.8563 29.7938C33.6846 29.7845 33.5125 29.7845 33.3409 29.7938C31.8616 29.7732 32.2131 29.9938 31.7369 28.6156C30.8009 25.9076 29.9134 23.1842 29.0032 20.4721C28.9568 20.333 28.8949 20.1979 28.8403 20.0598L28.6795 20.0722Z" fill="#798291"/>
<path id="Vector_7" d="M49.8073 27.0193C50.1247 26.1946 50.4567 25.37 50.7566 24.5299C51.6267 22.1085 52.4946 19.685 53.3337 17.2533C53.4801 16.8307 53.6666 16.6348 54.1326 16.6668C54.6982 16.7039 55.2657 16.7039 55.8314 16.6668C56.3189 16.6358 56.488 16.7966 56.487 17.3007C56.487 18.5707 56.5014 19.8427 56.5777 21.1147C56.7416 23.8371 56.9426 26.5575 57.1446 29.2768C57.1725 29.6623 57.0632 29.8128 56.6735 29.7984C56.1241 29.7798 55.5747 29.7829 55.0242 29.7984C54.6892 29.8066 54.5655 29.6675 54.5769 29.3376C54.5944 28.8748 54.5913 28.4099 54.5769 27.947C54.5081 25.5115 54.4394 23.0757 54.3707 20.6395C54.3707 20.4396 54.3068 20.2449 54.1882 20.0839C53.9542 20.6849 53.7089 21.2828 53.4893 21.8889C52.607 24.3247 51.7256 26.7616 50.8638 29.2077C50.7092 29.6479 50.4835 29.8582 50.0031 29.8056C49.6607 29.7657 49.3147 29.7657 48.9723 29.8056C48.4569 29.8695 48.2507 29.6252 48.0982 29.1696C47.1488 26.2668 46.1777 23.3712 45.2119 20.4736C45.1747 20.3633 45.1253 20.2581 45.0407 20.0509C44.9706 20.2385 44.9109 20.3334 44.9016 20.4334C44.7263 22.295 44.547 24.1557 44.3913 26.0194C44.3006 27.1127 44.2319 28.2085 44.1852 29.3067C44.1687 29.6974 44.0027 29.8138 43.645 29.8004C43.2162 29.785 42.7863 29.7901 42.3565 29.8004C42.0359 29.8077 41.8978 29.7221 41.9534 29.3489C42.5554 25.304 42.8173 21.2292 43.01 17.1492C43.0265 16.7853 43.1512 16.6729 43.4976 16.6812C44.2017 16.6977 44.9067 16.7059 45.6098 16.6812C45.9891 16.6657 46.1489 16.8183 46.2654 17.1646C47.3024 20.2365 48.3493 23.3052 49.4063 26.3709C49.4836 26.5946 49.5733 26.8141 49.6568 27.0347L49.8073 27.0193Z" fill="#798291"/>
<path id="Vector_8" d="M38.7212 3.46115C38.6126 3.6252 38.5172 3.79753 38.4357 3.97656C37.4471 6.69896 36.4575 9.42651 35.4854 12.1623C35.0927 13.2694 35.1123 13.2766 33.9629 13.2766C33.8257 13.2668 33.6879 13.2668 33.5506 13.2766C33.0692 13.3467 32.8672 13.1251 32.7177 12.6705C31.8168 9.91409 30.8808 7.17004 29.9572 4.42394C29.8417 4.08033 29.7259 3.73913 29.6098 3.40033L29.4036 3.42301C29.3387 4.00336 29.2572 4.58268 29.2139 5.16407C29.027 7.67789 28.847 10.1921 28.6738 12.7066C28.648 13.088 28.5223 13.3251 28.079 13.2807C27.7536 13.2514 27.4262 13.2514 27.1008 13.2807C26.6101 13.324 26.5183 13.0818 26.5658 12.6623C26.8358 10.2604 27.1214 7.85966 27.3502 5.4527C27.4822 4.05387 27.5347 2.64577 27.5904 1.24076C27.6368 0.0913986 27.5358 0.238806 28.6449 0.228498C29.1424 0.206998 29.6407 0.212848 30.1375 0.246022C30.321 0.265607 30.5839 0.446001 30.6416 0.612994C31.6291 3.43023 32.5878 6.25777 33.5568 9.08118C33.7372 9.60793 33.9341 10.1285 34.1237 10.6522L34.2722 10.6656C34.362 10.5201 34.4416 10.3686 34.5103 10.212C35.6658 7.05253 36.8255 3.89513 37.9553 0.728446C38.0914 0.349104 38.2573 0.206851 38.647 0.223344C39.2469 0.248083 39.8489 0.235713 40.4499 0.223344C40.7189 0.223344 40.8705 0.30684 40.8808 0.598562C40.8931 0.940795 40.9333 1.282 40.9519 1.62938C41.1189 4.71154 41.2852 7.79403 41.4508 10.8769C41.4859 11.5273 41.5353 12.1767 41.5848 12.8272C41.6106 13.1612 41.4642 13.2921 41.1343 13.2828C40.6705 13.2694 40.2066 13.2591 39.7427 13.2828C39.2964 13.3086 39.1397 13.1385 39.1428 12.6891C39.15 11.1088 39.1428 9.52856 39.1057 7.94728C39.0727 6.55774 38.9892 5.17025 38.9232 3.78277C38.9094 3.68674 38.8856 3.59242 38.8521 3.50135L38.7212 3.46115Z" fill="#798291"/>
<path id="Vector_9" d="M110.652 25.6398C110.664 25.4924 110.685 25.345 110.685 25.1976C110.671 22.5862 110.655 19.9765 110.637 17.3685C110.631 16.6789 110.62 16.6789 111.302 16.6758C111.645 16.6758 111.99 16.6995 112.332 16.6707C112.754 16.6335 112.857 16.8201 112.848 17.2098C112.809 19.3889 112.771 21.5691 112.769 23.7483C112.769 25.5501 112.801 27.3561 112.851 29.1539C112.864 29.6435 112.723 29.8064 112.22 29.8013C110.614 29.7858 110.623 29.8013 109.724 28.4756C107.892 25.7783 106.054 23.0851 104.21 20.396C104.097 20.2321 103.961 20.0868 103.731 19.7961C103.704 20.1651 103.676 20.3734 103.678 20.5826C103.707 23.4689 103.728 26.349 103.781 29.2312C103.791 29.7105 103.633 29.8301 103.2 29.7961C102.841 29.7688 102.48 29.7688 102.12 29.7961C101.697 29.826 101.537 29.6693 101.556 29.2384C101.611 28.0385 101.67 26.8376 101.666 25.6378C101.655 22.8415 101.621 20.0445 101.562 17.2469C101.553 16.7717 101.705 16.6284 102.144 16.6727C102.4 16.7073 102.66 16.7073 102.916 16.6727C103.894 16.4965 104.475 16.9479 105.006 17.7407C106.709 20.2765 108.48 22.768 110.224 25.2749C110.32 25.412 110.421 25.545 110.519 25.68L110.652 25.6398Z" fill="#798291"/>
<path id="Vector_10" d="M69.8127 3.32639C69.789 3.36969 69.7447 3.41298 69.7447 3.45628C69.7447 4.94993 69.7385 6.44566 69.754 7.93725C69.7725 9.60203 69.8189 11.2668 69.823 12.9316C69.823 13.0439 69.5777 13.2408 69.4313 13.2553C69.0066 13.2996 68.5737 13.2604 68.1449 13.2748C67.815 13.2851 67.68 13.1542 67.6944 12.8182C67.7377 11.7729 67.7882 10.7267 67.7975 9.68037C67.8099 7.32701 67.7975 4.97261 67.7892 2.61925C67.7892 1.98529 67.7428 1.35134 67.6975 0.718416C67.6686 0.325674 67.85 0.256609 68.2129 0.209191C69.589 0.0277665 70.5456 0.415355 71.3466 1.68326C72.9103 4.16239 74.6792 6.51369 76.3646 8.9155C76.4772 9.08783 76.6383 9.22303 76.8275 9.30412C76.8591 9.13379 76.8801 8.96165 76.8903 8.78871C76.8835 6.40133 76.8718 4.01395 76.8553 1.62657C76.8553 1.30083 76.812 0.976121 76.7904 0.651413C76.7697 0.342167 76.9171 0.207129 77.2212 0.223622C77.3408 0.229807 77.4614 0.223622 77.582 0.223622C78.9365 0.223622 78.9293 0.223622 78.9097 1.59771C78.8778 3.93355 78.8417 6.26835 78.8355 8.60729C78.8355 9.98034 78.8716 11.3544 78.9169 12.7306C78.9314 13.1645 78.7582 13.246 78.3541 13.2986C77.1996 13.4542 76.5213 13.0213 75.8801 12.0111C74.0865 9.16702 72.1424 6.41782 70.2591 3.63048C70.1642 3.49132 70.0838 3.34185 69.9972 3.19754L69.8127 3.32639Z" fill="#798291"/>
<path id="Vector_11" d="M50.0862 6.23332C50.5212 6.43949 50.816 6.56525 51.1005 6.71266C52.1881 7.27445 52.8674 8.11354 52.8684 9.39279C52.8684 10.7102 52.3623 11.7441 51.1913 12.4296C49.9852 13.1357 48.6482 13.214 47.3123 13.2646C46.1475 13.3099 44.9785 13.2646 43.8075 13.28C43.4333 13.2852 43.3312 13.1821 43.3333 12.7759C43.355 8.74543 43.3467 4.71389 43.3333 0.682355C43.3333 0.43702 43.2952 0.220547 43.6353 0.229825C45.5186 0.279304 47.4123 0.0597395 49.2822 0.448359C50.279 0.654523 51.1995 1.03283 51.8128 1.89151C52.7529 3.20993 52.2891 4.91697 50.782 5.80863C50.5903 5.91995 50.3965 6.04262 50.0862 6.23332ZM45.6331 9.11962H45.6021C45.6341 9.80409 45.6733 10.4875 45.6949 11.172C45.7042 11.4606 45.8145 11.6534 46.1155 11.6286C47.135 11.5441 48.1668 11.5163 49.1667 11.3194C50.046 11.1483 50.5274 10.4319 50.5697 9.567C50.6119 8.70214 50.1934 8.05066 49.3327 7.68884C48.2575 7.23734 47.1216 7.2827 45.9939 7.33012C45.8671 7.3363 45.6671 7.6105 45.6485 7.77646C45.6011 8.22384 45.6331 8.67328 45.6331 9.11859V9.11962ZM45.6032 4.01912H45.6351C45.6351 4.43145 45.6094 4.84378 45.6485 5.25095C45.663 5.39733 45.8258 5.64576 45.931 5.65091C46.9546 5.69627 47.9926 5.78904 48.9647 5.34166C49.6863 5.00665 50.0852 4.36754 50.045 3.62947C50.0048 2.8914 49.5729 2.23065 48.7802 2.06984C47.9184 1.89666 47.0226 1.88945 46.1413 1.83172C45.8207 1.81007 45.7021 2.02036 45.6929 2.32754C45.6743 2.89656 45.6341 3.45939 45.6032 4.01912Z" fill="#798291"/>
<path id="Vector_12" d="M91.3418 2.3815C90.2265 2.12276 89.2596 1.82176 88.269 1.68879C87.0827 1.52437 85.8758 1.76634 84.8446 2.37532C83.5427 3.12781 82.9489 4.35552 82.7768 5.76775C82.517 7.89433 83.0386 9.77145 84.8941 11.0662C85.5695 11.5528 86.3863 11.8039 87.2186 11.7805C87.8529 11.7585 88.4854 11.7242 89.1163 11.6774C89.4255 11.6548 89.5585 11.4568 89.5606 11.1507C89.5606 9.81062 89.5874 8.47777 89.5771 7.1408C89.5771 6.83155 89.6626 6.69858 89.977 6.70476C90.5089 6.71404 91.0419 6.71507 91.5738 6.70476C91.883 6.69858 91.9954 6.83877 91.9943 7.1408C91.9871 8.87567 91.9943 10.6105 91.9789 12.3454C91.9789 12.5042 91.8253 12.767 91.6944 12.8031C88.7565 13.6051 85.8434 13.9071 83.086 12.1949C80.6811 10.7013 79.8286 8.03246 80.4533 5.33274C81.2625 1.8331 84.3199 0.0487538 87.5196 0.00545935C88.8359 -0.0120646 90.1224 0.115757 91.3759 0.539424C91.7882 0.680647 91.9943 0.84867 91.7634 1.31769C91.6047 1.66482 91.464 2.01989 91.3418 2.3815Z" fill="#798291"/>
<path id="Vector_13" d="M11.1164 2.4503C10.0938 2.18331 9.13616 1.87098 8.15379 1.69574C7.10339 1.50813 6.06226 1.70089 5.08401 2.13074C4.04391 2.5874 3.28935 3.35536 2.91104 4.42329C2.24719 6.30144 2.29255 8.15176 3.44088 9.84231C4.24389 11.0195 5.37264 11.7431 6.84259 11.772C7.52602 11.7864 8.21152 11.7236 8.89495 11.6834C9.19801 11.6648 9.3547 11.4916 9.35676 11.1772C9.36295 9.87324 9.39799 8.56925 9.36913 7.26629C9.35882 6.82613 9.47221 6.67666 9.9031 6.70243C10.3318 6.73285 10.7621 6.73181 11.1906 6.69934C11.7008 6.65295 11.7967 6.89107 11.7782 7.33639C11.7301 8.41669 11.706 9.49733 11.706 10.5783C11.706 11.1607 11.7833 11.7442 11.7596 12.3245C11.7524 12.5049 11.5586 12.7853 11.3947 12.8399C9.3413 13.4584 7.24358 13.6646 5.14277 13.177C3.08112 12.6956 1.49778 11.5277 0.57829 9.57636C-0.643232 6.98075 0.352541 3.24712 2.65539 1.53596C4.52324 0.140228 6.63643 -0.15768 8.86197 0.0680702C9.67322 0.150536 10.468 0.403087 11.2689 0.58348C11.6328 0.665946 11.7338 0.869018 11.5782 1.22568C11.3968 1.66378 11.2421 2.11631 11.1164 2.4503Z" fill="#798291"/>
<path id="Vector_14" d="M12.5371 13.2619C13.0525 12.1383 13.5257 11.1477 13.971 10.1467C15.1571 7.48311 16.3377 4.81706 17.5129 2.14861C17.7562 1.60021 18.0149 1.05697 18.2345 0.499298C18.3571 0.190052 18.554 0.0931546 18.8684 0.105524C19.2962 0.124079 19.7271 0.12511 20.1559 0.105524C20.4868 0.091093 20.6404 0.245716 20.7579 0.5395C22.3729 4.58925 23.9916 8.63556 25.6141 12.6784C25.676 12.8331 25.7254 12.9877 25.8203 13.2516C24.9688 13.2516 24.1895 13.2691 23.4123 13.233C23.2937 13.233 23.1453 12.9887 23.0803 12.8289C22.7123 11.9239 22.3474 11.0157 22.0196 10.0952C21.8825 9.70968 21.6815 9.56227 21.2692 9.56846C19.7931 9.58907 18.3159 9.58495 16.8367 9.56846C16.4748 9.56846 16.2821 9.69318 16.146 10.0344C15.7584 11.0054 15.3409 11.9661 14.9173 12.9207C14.8575 13.0557 14.6998 13.2361 14.5802 13.2413C13.9349 13.2784 13.2886 13.2619 12.5371 13.2619ZM19.257 2.53414C19.1313 2.77123 19.0509 2.89389 18.9993 3.02584C18.4035 4.46899 17.8129 5.91214 17.217 7.3491C17.0181 7.83358 17.0665 7.92636 17.5881 7.93667C18.619 7.94697 19.6474 7.94697 20.6734 7.93667C21.1888 7.93048 21.2362 7.83358 21.0579 7.34601C20.5507 5.93997 20.0477 4.53496 19.5405 3.1382C19.4776 2.97017 19.3879 2.81246 19.257 2.53414Z" fill="#798291"/>
<path id="Vector_15" d="M62.3441 11.5726C62.3203 11.7108 62.3193 11.7623 62.3039 11.8087C61.8204 13.2724 61.8194 13.2724 60.267 13.2724H54.8593C54.1934 13.2724 54.1934 13.258 54.1985 12.623C54.2246 9.03715 54.2459 5.45058 54.2624 1.86333C54.2624 1.46955 54.2253 1.07578 54.1944 0.683036C54.1696 0.355235 54.2975 0.209889 54.6366 0.219167C55.152 0.233598 55.6674 0.230506 56.1828 0.219167C56.4777 0.212982 56.6312 0.305756 56.6189 0.631495C56.5612 2.17773 56.4962 3.71571 56.4694 5.25782C56.4488 6.40615 56.4797 7.55552 56.4941 8.70385C56.5024 9.42543 56.5261 10.147 56.5364 10.8686C56.5467 11.551 56.5591 11.5747 57.224 11.5716C58.7702 11.5654 60.3164 11.551 61.8627 11.5417C62.0101 11.5438 62.1575 11.5592 62.3441 11.5726Z" fill="#798291"/>
<path id="Vector_16" d="M59.9353 16.6752C60.1582 16.688 60.3816 16.6862 60.6043 16.6701C61.1053 16.6041 61.1991 16.8412 61.1877 17.2886C61.1352 19.3822 61.0847 21.4747 61.0847 23.5683C61.0847 25.4547 61.1352 27.3422 61.1877 29.2286C61.1991 29.6491 61.0847 29.8213 60.6424 29.7955C60.1466 29.7646 59.6467 29.7739 59.1498 29.7955C58.7653 29.8099 58.6076 29.6986 58.6127 29.2698C58.6571 25.7001 58.6787 22.1303 58.6983 18.5616C58.6961 18.0987 58.6685 17.6362 58.6158 17.1762C58.5736 16.7804 58.7385 16.6484 59.1117 16.6742C59.3848 16.6907 59.6611 16.6752 59.9353 16.6752Z" fill="#798291"/>
<path id="Vector_17" d="M83.931 16.6755C84.034 16.6755 84.1371 16.6755 84.2402 16.6755C85.2844 16.693 85.1844 16.5054 85.1814 17.697C85.1745 21.4169 85.1745 25.1371 85.1814 28.8577C85.1814 29.0123 85.1814 29.1669 85.1917 29.3216C85.2205 29.6473 85.0886 29.7968 84.7505 29.7906C84.2196 29.7803 83.6867 29.77 83.1558 29.7906C82.7352 29.8102 82.6311 29.6226 82.6404 29.236C82.6847 26.9682 82.7332 24.7086 82.7373 22.445C82.7373 20.7307 82.696 19.0154 82.6342 17.3012C82.6167 16.8043 82.762 16.6043 83.262 16.6662C83.4846 16.6832 83.708 16.6863 83.931 16.6755Z" fill="#798291"/>
<path id="Vector_18" d="M64.7418 13.2726C63.4275 13.2438 63.5687 13.5025 63.58 12.0975C63.6058 9.07823 63.6501 6.05999 63.6676 3.04175C63.6676 2.2542 63.612 1.46665 63.5718 0.679105C63.5563 0.352334 63.68 0.204927 64.0181 0.219359C64.4824 0.243394 64.9477 0.242017 65.4118 0.215235C65.9117 0.176064 66.0303 0.405937 66.0128 0.852282C65.9664 2.3614 65.9169 3.87052 65.921 5.37965C65.9272 7.72889 65.9787 10.0792 66.0055 12.4284C66.0148 13.2716 66.0055 13.2716 65.1582 13.2726H64.7418Z" fill="#798291"/>
</g>
</svg>
