<?xml version="1.0" encoding="UTF-8"?>
<svg xmlns="http://www.w3.org/2000/svg" width="34" height="24" viewBox="0 0 34 24" fill="none">
  <path d="M11.7388 9.98551V5.85916C11.7388 5.81583 11.6935 5.78334 11.6596 5.78334H8.37879C8.33353 5.78334 8.29959 5.81583 8.29959 5.85916V7.44038C8.29959 7.4837 8.33353 7.51619 8.37879 7.51619H9.81555C9.86081 7.51619 9.89475 7.54869 9.89475 7.59201V7.86277C9.89475 7.88443 9.88343 7.91692 9.86081 7.92775C9.66848 8.06854 9.45353 8.16601 9.21596 8.22017C8.96707 8.28515 8.71818 8.30681 8.46929 8.28515C8.2204 8.27432 7.98283 8.20934 7.74525 8.11186C7.50768 8.01439 7.30404 7.8736 7.11172 7.68948C6.90808 7.49453 6.7497 7.2671 6.63657 7.00717C6.53475 6.74724 6.47818 6.48731 6.47818 6.22739C6.47818 5.96746 6.52343 5.70753 6.63657 5.4476C6.73838 5.1985 6.89677 4.97107 7.11172 4.76529C7.31535 4.55952 7.55293 4.40789 7.82444 4.31042C8.09596 4.21295 8.36747 4.15879 8.63899 4.15879C8.9105 4.15879 9.18202 4.21295 9.45353 4.31042C9.69111 4.40789 9.91737 4.53786 10.1097 4.71114C10.1436 4.74363 10.1889 4.74363 10.2228 4.71114L11.4107 3.57396C11.4446 3.5523 11.4446 3.49814 11.4107 3.46565C11.0374 3.11908 10.6075 2.84832 10.1436 2.67504C9.64586 2.49092 9.14808 2.39345 8.62768 2.39345C8.10727 2.39345 7.60949 2.49092 7.11172 2.67504C6.62525 2.85916 6.18404 3.14074 5.78808 3.5198C5.40343 3.88804 5.10929 4.31042 4.91697 4.78695C4.72465 5.26349 4.63414 5.74002 4.63414 6.23822C4.63414 6.72558 4.72465 7.21295 4.91697 7.67865C5.10929 8.14435 5.39212 8.56674 5.78808 8.9458C6.17273 9.32486 6.61394 9.60645 7.11172 9.79056C7.60949 9.97468 8.10727 10.0722 8.62768 10.0722C8.83131 10.0722 9.04626 10.0613 9.26121 10.0288C9.44222 9.99634 9.61192 9.96385 9.78162 9.9097C9.83818 9.89887 9.89475 9.93136 9.89475 9.98551C9.89475 10.0288 9.92869 10.0613 9.97394 10.0613H11.6596C11.7048 10.0613 11.7388 10.0288 11.7388 9.98551Z" fill="#798291"></path>
  <path fill-rule="evenodd" clip-rule="evenodd" d="M17.7466 9.195L18.0294 10.0181C18.0407 10.0506 18.0746 10.0723 18.1086 10.0614H19.8734C19.93 10.0614 19.9753 10.0181 19.9526 9.96395L17.4298 2.4802C17.4185 2.44771 17.3845 2.42605 17.3506 2.42605H15.6989C15.6649 2.42605 15.631 2.44771 15.6197 2.4802L12.9611 9.96395C12.9498 10.0181 12.9837 10.0723 13.0403 10.0723H14.8165C14.8504 10.0723 14.8843 10.0506 14.8957 10.0181L15.1898 9.195C15.2011 9.16251 15.235 9.14085 15.269 9.14085H17.6674C17.7013 9.14085 17.7353 9.16251 17.7466 9.195ZM17.0225 7.38633H15.9591C15.9025 7.38633 15.8686 7.33218 15.8799 7.28886L16.4229 5.76179C16.4569 5.68597 16.5587 5.68597 16.5813 5.76179L17.1017 7.28886C17.113 7.33218 17.0791 7.38633 17.0225 7.38633Z" fill="#798291"></path>
  <path d="M27.0006 2.41518H28.7541C28.7994 2.41518 28.8333 2.44767 28.8333 2.49099L29.2858 9.98558C29.2858 10.0289 29.2519 10.0722 29.2066 10.0722H27.5323C27.487 10.0722 27.4531 10.0397 27.4531 9.99641L27.2834 7.34298C27.2834 7.25634 27.1476 7.24551 27.125 7.32132L26.1747 10.0181C26.1634 10.0506 26.1295 10.0722 26.0955 10.0722H24.3759C24.342 10.0722 24.3081 10.0506 24.2967 10.0181L23.2786 7.19135C23.2446 7.11554 23.1202 7.12637 23.1202 7.21301L22.9392 9.99641C22.9392 10.0397 22.9052 10.0722 22.86 10.0722H21.1743C21.1291 10.0722 21.0951 10.0289 21.0951 9.98558L21.5929 2.49099C21.5929 2.44767 21.6268 2.41518 21.6721 2.41518H23.4256C23.4596 2.41518 23.4935 2.43684 23.5048 2.46933L25.1565 6.99641C25.1792 7.06139 25.281 7.06139 25.3149 6.99641L26.9327 2.46933C26.9327 2.43684 26.9666 2.41518 27.0006 2.41518Z" fill="#798291"></path>
  <path d="M27.2941 18.5305C27.2941 18.5738 27.3394 18.6172 27.3846 18.6063C27.5543 18.5955 27.7127 18.5522 27.8711 18.4764C28.0521 18.4006 28.1992 18.2923 28.3349 18.1623C28.4707 18.0323 28.5725 17.8807 28.6404 17.7074C28.7196 17.5341 28.7535 17.35 28.7535 17.1551C28.7535 16.9601 28.7196 16.776 28.6404 16.6027C28.5612 16.4294 28.4594 16.2778 28.3349 16.1479C28.1992 16.0179 28.0521 15.9096 27.8711 15.8338C27.724 15.7688 27.5543 15.7255 27.3846 15.7038C27.3394 15.7038 27.2941 15.7363 27.2941 15.7796V18.5305Z" fill="#798291"></path>
  <path d="M20.6086 19.6788C20.3484 19.7871 20.0656 19.8413 19.7715 19.8413C19.466 19.8413 19.1945 19.7871 18.9343 19.6788C18.6628 19.5705 18.4365 19.4189 18.2442 19.2348C18.0519 19.0398 17.8935 18.8232 17.7803 18.5741C17.6672 18.325 17.6106 18.0543 17.6106 17.7727C17.6106 17.4911 17.6672 17.2203 17.7803 16.9712C17.8935 16.7113 18.0519 16.4947 18.2442 16.3106C18.4478 16.1265 18.6741 15.9749 18.9343 15.8665C19.1945 15.7582 19.4773 15.7041 19.7715 15.7041C20.0656 15.7041 20.3484 15.7582 20.6086 15.8665C20.8801 15.9749 21.1064 16.1265 21.2987 16.3106C21.4911 16.5055 21.6494 16.7221 21.7626 16.9712C21.8757 17.2203 21.9323 17.4911 21.9323 17.7727C21.9323 18.0543 21.8757 18.325 21.7626 18.5741C21.6494 18.8341 21.4911 19.0507 21.2987 19.2348C21.0951 19.4189 20.8688 19.5705 20.6086 19.6788Z" fill="#798291"></path>
  <path fill-rule="evenodd" clip-rule="evenodd" d="M6.5572 0H32.4982C33.2109 0 33.7992 0.563177 33.7992 1.24549V17.9134C33.7992 21.2708 30.9483 24 27.4412 24H1.50023C0.787502 24 0.199219 23.4368 0.199219 22.7545V6.08664C0.199219 2.72924 3.05013 0 6.5572 0ZM6.52292 0.866439C3.50231 0.866439 1.04736 3.21662 1.04736 6.10832V11.2527C1.04736 11.4693 1.23968 11.6534 1.46594 11.6534H32.4639C32.6902 11.6534 32.8825 11.4693 32.8825 11.2527V1.26716C32.8825 1.05055 32.6902 0.866439 32.4639 0.866439H6.52292ZM6.03735 21.5957C5.78846 21.5957 5.52826 21.5632 5.27937 21.4982C5.03048 21.4332 4.79291 21.3249 4.56665 21.1949C4.17069 20.9567 3.86523 20.6426 3.65028 20.2527C3.44665 19.8953 3.33351 19.4946 3.3222 19.0722C3.3222 19.0289 3.35614 18.9964 3.40139 18.9964H5.07574C5.12099 18.9964 5.15493 19.0289 5.15493 19.0722C5.16624 19.2455 5.21149 19.3755 5.29069 19.4838C5.38119 19.6029 5.4717 19.6787 5.53958 19.722C5.67533 19.8087 5.81109 19.852 5.95816 19.852C6.10523 19.8628 6.26362 19.8303 6.39937 19.7653C6.50119 19.722 6.58038 19.6679 6.64826 19.6137C6.6614 19.5986 6.67453 19.5841 6.68738 19.5699C6.72987 19.523 6.76927 19.4795 6.79533 19.4296C6.82927 19.3755 6.8519 19.3105 6.8519 19.2563C6.86321 19.2022 6.86321 19.1588 6.86321 19.1264C6.86321 19.0939 6.86321 19.0505 6.8519 18.9964L6.8491 18.9828C6.83857 18.9316 6.82648 18.8728 6.79533 18.8231C6.76139 18.7581 6.71614 18.704 6.64826 18.639C6.5917 18.5848 6.50119 18.5307 6.39937 18.4765C6.32018 18.444 6.22968 18.4116 6.13917 18.3791C6.10641 18.3673 6.07218 18.357 6.03753 18.3465C5.97648 18.3281 5.91406 18.3092 5.85634 18.2816C5.67533 18.2274 5.48301 18.1625 5.29069 18.0975C5.09836 18.0325 4.89473 17.935 4.7024 17.8159C4.45351 17.6643 4.23856 17.4693 4.05755 17.2419C3.88786 17.0144 3.76341 16.7653 3.68422 16.5054C3.60503 16.2455 3.5824 15.9639 3.60503 15.6931C3.62766 15.4116 3.70685 15.1408 3.85392 14.8809C3.98968 14.6426 4.14806 14.4368 4.34038 14.2635C4.53271 14.0903 4.75897 13.9495 4.99654 13.852C5.23412 13.7545 5.49432 13.6895 5.76584 13.6679C6.03735 13.6462 6.32018 13.6679 6.60301 13.7437C6.87452 13.8087 7.12341 13.9061 7.34968 14.0361C7.57594 14.1661 7.76826 14.3394 7.92665 14.5235C8.08503 14.7184 8.20947 14.9242 8.29998 15.1625C8.37917 15.3791 8.42442 15.5957 8.42442 15.8231C8.42442 15.8664 8.39048 15.8989 8.34523 15.8989H6.71614C6.67089 15.8989 6.63695 15.8664 6.63695 15.8339C6.62564 15.7148 6.56907 15.6173 6.47856 15.574C6.37675 15.509 6.28624 15.4765 6.20705 15.4549H6.18442C6.17505 15.4549 6.16568 15.453 6.1547 15.4508C6.13917 15.4478 6.12043 15.444 6.09392 15.444C6.03735 15.4332 5.98079 15.4332 5.91291 15.444C5.84503 15.4549 5.77715 15.4765 5.69796 15.5199C5.63008 15.5632 5.5622 15.6173 5.52826 15.704C5.4717 15.8123 5.46038 15.9314 5.49432 16.0505C5.52826 16.1697 5.60745 16.2672 5.70927 16.3321C5.81109 16.3863 5.92422 16.4404 6.04867 16.4838C6.17311 16.5271 6.29755 16.5704 6.44463 16.6137C6.56907 16.6462 6.69351 16.6895 6.81796 16.7329C6.84385 16.7419 6.87024 16.7509 6.89691 16.76C6.99839 16.7947 7.10407 16.8308 7.20261 16.8736C7.67776 17.0794 8.05109 17.3827 8.32261 17.7942C8.59412 18.1949 8.72988 18.6498 8.72988 19.1372C8.72988 19.6245 8.59412 20.0686 8.32261 20.4693C8.05109 20.87 7.67776 21.1733 7.20261 21.3899C7.01028 21.4765 6.82927 21.5307 6.62564 21.574C6.53085 21.574 6.43606 21.5793 6.33992 21.5846C6.24099 21.5901 6.14063 21.5957 6.03735 21.5957ZM30.3261 18.4114C30.4958 18.0215 30.5863 17.6099 30.5863 17.1767C30.5863 16.7327 30.4958 16.3211 30.3261 15.9421C30.1564 15.5522 29.9301 15.2164 29.6246 14.924C29.3192 14.6316 28.9685 14.4042 28.5725 14.2309C28.1766 14.0576 27.7467 13.971 27.2941 13.9601H25.5406C25.4953 13.9601 25.4614 13.9926 25.4614 14.0359V21.5197C25.4614 21.563 25.4953 21.5955 25.5406 21.5955H27.2149C27.2602 21.5955 27.2941 21.563 27.2941 21.5197V20.4583C27.2941 20.415 27.3281 20.3825 27.3733 20.3825C27.7919 20.3717 28.1992 20.285 28.5725 20.1226C28.9685 19.9493 29.3192 19.7219 29.6246 19.4294C29.9188 19.137 30.1564 18.8013 30.3261 18.4114ZM19.7601 13.9496C20.3145 13.9496 20.8236 14.0471 21.31 14.2528C21.7965 14.4586 22.2151 14.7294 22.5771 15.0651C22.9391 15.4117 23.222 15.8124 23.4369 16.2781C23.6519 16.7438 23.7537 17.242 23.7537 17.7619C23.7537 18.2925 23.6519 18.7907 23.4369 19.2456C23.222 19.7113 22.9391 20.112 22.5771 20.4586C22.2151 20.8052 21.7965 21.0759 21.31 21.2709C20.8236 21.4767 20.3032 21.5741 19.7601 21.5741C19.2171 21.5741 18.6967 21.4767 18.2102 21.2709C17.7238 21.0651 17.3052 20.7943 16.9432 20.4586C16.5812 20.112 16.2983 19.7113 16.0947 19.2456C15.8797 18.7799 15.7779 18.2817 15.7779 17.7619C15.7779 17.2312 15.8797 16.733 16.0947 16.2781C16.3096 15.8124 16.5925 15.4117 16.9432 15.0651C17.3052 14.7185 17.7238 14.4478 18.2102 14.2528C18.6967 14.0579 19.2058 13.9496 19.7601 13.9496ZM10.1096 15.7255H11.5464V21.5197C11.5464 21.5632 11.5803 21.5957 11.6256 21.5957H13.3112C13.3565 21.5957 13.3904 21.5632 13.3904 21.5197V15.7255H14.8385C14.8837 15.7255 14.9177 15.6929 14.9177 15.6498V14.0358C14.9177 13.9927 14.8837 13.9601 14.8385 13.9601H10.1096C10.0643 13.9601 10.0304 13.9927 10.0304 14.0358V15.6498C10.0191 15.6929 10.0643 15.7255 10.1096 15.7255Z" fill="#798291"></path>
</svg>
