<svg width="24" height="28" viewBox="0 0 24 28" fill="none" xmlns="http://www.w3.org/2000/svg">
<g clip-path="url(#clip0_24521_13030)">
<path fill-rule="evenodd" clip-rule="evenodd" d="M23.6521 23.8V0.344757H1.24872V23.8H23.6521ZM24.0004 23.8V28H0.900391V23.8V0H24.0004V23.8Z" fill="#798291"/>
<path d="M6.93579 25.8661L6.52253 25.9056C6.54581 26.1315 6.63312 26.3065 6.78445 26.4194C6.92997 26.5435 7.13369 26.6 7.39561 26.6C7.57605 26.6 7.72738 26.5774 7.84962 26.5266C7.97185 26.4758 8.0708 26.4024 8.13482 26.3008C8.19885 26.1992 8.23377 26.0919 8.23377 25.9734C8.23377 25.8492 8.21049 25.7363 8.15229 25.6516C8.09408 25.5613 8.01841 25.4935 7.91946 25.4427C7.82051 25.3919 7.66918 25.3411 7.46546 25.296C7.25592 25.2508 7.12787 25.2056 7.07548 25.1605C7.03474 25.1266 7.01145 25.0815 7.01145 25.0363C7.01145 24.9855 7.03474 24.946 7.0813 24.9121C7.15115 24.8613 7.2501 24.8387 7.37233 24.8387C7.48874 24.8387 7.58187 24.8613 7.64008 24.9065C7.69828 24.9516 7.73903 25.0306 7.75649 25.1323L8.18139 25.1153C8.17557 24.929 8.10572 24.7823 7.97185 24.6694C7.83798 24.5565 7.64008 24.5 7.37815 24.5C7.21517 24.5 7.0813 24.5226 6.96489 24.5677C6.84848 24.6129 6.76117 24.6806 6.70296 24.771C6.63894 24.8613 6.60983 24.9573 6.60983 25.0589C6.60983 25.2169 6.67386 25.3524 6.80191 25.4653C6.89504 25.55 7.0522 25.6121 7.2792 25.6685L7.32678 25.6808C7.47411 25.7189 7.56934 25.7435 7.61679 25.7589C7.68664 25.7871 7.73903 25.8153 7.76813 25.8492C7.79723 25.8831 7.80887 25.9282 7.80887 25.9734C7.80887 26.0524 7.77395 26.1145 7.7041 26.171C7.63426 26.2274 7.52949 26.2556 7.39561 26.2556C7.26756 26.2556 7.16279 26.2218 7.08712 26.1597C7.01145 26.0976 6.95907 26.0016 6.93579 25.8661Z" fill="white"/>
<path d="M5.80078 24.5395V26.5661H6.22568V24.5395H5.80078Z" fill="white"/>
<path fill-rule="evenodd" clip-rule="evenodd" d="M8.48988 25.5613C8.48988 25.3524 8.51899 25.1831 8.58301 25.0419C8.62958 24.9403 8.6936 24.8444 8.77509 24.7653C8.85658 24.6806 8.94971 24.6242 9.04284 24.5847C9.17089 24.5339 9.32222 24.5056 9.49102 24.5056C9.79951 24.5056 10.044 24.596 10.2302 24.7823C10.4165 24.9685 10.5096 25.2282 10.5096 25.5556C10.5096 25.8831 10.4165 26.1371 10.2361 26.3234C10.0498 26.5097 9.80533 26.6 9.50266 26.6C9.19417 26.6 8.94389 26.5097 8.76345 26.3234C8.58301 26.1371 8.48988 25.8887 8.48988 25.5613ZM8.92642 25.55C8.92642 25.7815 8.97881 25.9564 9.0894 26.075C9.19999 26.1935 9.33969 26.25 9.50848 26.25C9.67728 26.25 9.81697 26.1935 9.92174 26.075C10.0323 25.9564 10.0847 25.7815 10.0847 25.5444C10.0847 25.3129 10.0323 25.1379 9.92756 25.025C9.82279 24.9121 9.6831 24.8556 9.50848 24.8556C9.33386 24.8556 9.19417 24.9121 9.0894 25.0306C8.98463 25.1492 8.92642 25.3185 8.92642 25.55Z" fill="white"/>
<path d="M12.9252 26.5661V26.2048H12.1277C12.1452 26.171 12.1743 26.1371 12.2092 26.0976C12.2383 26.0581 12.3198 25.9847 12.4479 25.8718C12.5759 25.7589 12.6632 25.6742 12.7098 25.6121C12.7855 25.5218 12.8379 25.4371 12.8728 25.3524C12.9077 25.2734 12.9252 25.1831 12.9252 25.0927C12.9252 24.9347 12.867 24.7992 12.7505 24.6919C12.6283 24.5847 12.4653 24.5282 12.2616 24.5282C12.0754 24.5282 11.9182 24.5734 11.7902 24.6694C11.6679 24.7653 11.5923 24.9177 11.569 25.1323L11.9706 25.1718C11.9822 25.0589 12.0055 24.9798 12.0579 24.929C12.1045 24.8782 12.1743 24.8556 12.2558 24.8556C12.3373 24.8556 12.4071 24.8782 12.4537 24.9234C12.5003 24.9685 12.5235 25.0363 12.5235 25.121C12.5235 25.2 12.4944 25.279 12.4421 25.3581C12.4013 25.4145 12.2907 25.5274 12.1103 25.6911C11.8891 25.8944 11.7378 26.0524 11.6621 26.1766C11.5806 26.3008 11.5399 26.4306 11.5224 26.5661H12.9252Z" fill="white"/>
<path d="M13.1987 24.9234V24.5621H14.5724V24.8444C14.4618 24.9516 14.3454 25.1097 14.229 25.3073C14.1126 25.5105 14.0253 25.725 13.9612 25.9508C13.8972 26.1766 13.8681 26.3798 13.8681 26.5605H13.4839C13.4898 26.2782 13.548 25.996 13.6644 25.7024C13.775 25.4089 13.9263 25.1492 14.1184 24.9234H13.1987Z" fill="white"/>
<path fill-rule="evenodd" clip-rule="evenodd" d="M15.9751 24.7371C15.8587 24.596 15.7016 24.5282 15.4979 24.5282C15.3 24.5282 15.1428 24.596 15.0264 24.7371C14.8925 24.9065 14.8227 25.1774 14.8227 25.5613C14.8227 25.9508 14.8867 26.2218 15.0089 26.3742C15.137 26.5266 15.3 26.6 15.5037 26.6C15.7016 26.6 15.8645 26.5323 15.9751 26.3911C16.109 26.2218 16.1789 25.9452 16.1789 25.5613C16.1789 25.1774 16.109 24.9008 15.9751 24.7371ZM15.3698 24.8952C15.4047 24.8669 15.4513 24.85 15.4979 24.85C15.5502 24.85 15.591 24.8556 15.6259 24.8895C15.6608 24.9234 15.6958 24.9798 15.719 25.0702C15.7423 25.1605 15.754 25.3242 15.754 25.5613C15.754 25.7984 15.7423 25.9677 15.7132 26.0694C15.6958 26.1484 15.6666 26.2048 15.6259 26.2331C15.591 26.2613 15.5444 26.2782 15.4979 26.2782C15.4513 26.2782 15.4047 26.2613 15.3698 26.2331C15.3349 26.2048 15.3 26.1484 15.2767 26.0581C15.2534 25.9677 15.2417 25.804 15.2417 25.5669C15.2417 25.3298 15.2534 25.1605 15.2825 25.0589C15.3 24.9798 15.3349 24.9234 15.3698 24.8952Z" fill="white"/>
<path fill-rule="evenodd" clip-rule="evenodd" d="M17.1276 24.5282C17.3313 24.5282 17.4885 24.596 17.6049 24.7371C17.7388 24.9008 17.8086 25.1774 17.8086 25.5613C17.8086 25.9452 17.7388 26.2218 17.6049 26.3911C17.4943 26.5323 17.3313 26.6 17.1334 26.6C16.9297 26.6 16.7667 26.5266 16.6387 26.3742C16.5165 26.2218 16.4524 25.9508 16.4524 25.5613C16.4524 25.1774 16.5223 24.9065 16.6561 24.7371C16.7667 24.596 16.9239 24.5282 17.1276 24.5282ZM17.1276 24.85C17.081 24.85 17.0345 24.8669 16.9996 24.8952C16.9646 24.9234 16.9297 24.9798 16.9123 25.0589C16.8831 25.1605 16.8715 25.3298 16.8715 25.5669C16.8715 25.804 16.8831 25.9677 16.9064 26.0581C16.9297 26.1484 16.9646 26.2048 16.9996 26.2331C17.0345 26.2613 17.081 26.2782 17.1276 26.2782C17.1742 26.2782 17.2207 26.2613 17.2557 26.2331C17.2964 26.2048 17.3255 26.1484 17.343 26.0694C17.3721 25.9677 17.3837 25.7984 17.3837 25.5613C17.3837 25.3242 17.3721 25.1605 17.3488 25.0702C17.3255 24.9798 17.2906 24.9234 17.2557 24.8895C17.2207 24.8556 17.1742 24.85 17.1276 24.85Z" fill="white"/>
<path d="M18.6992 26.5661H19.1008V24.5339H18.7748C18.7341 24.6524 18.6468 24.7653 18.5245 24.8556C18.4023 24.946 18.2859 25.0081 18.1811 25.0419V25.3919C18.379 25.3298 18.5536 25.2339 18.6992 25.0984V26.5661Z" fill="white"/>
<path d="M1.59961 16.4496C1.59961 12.3924 4.87155 9.09961 8.90305 9.09961C12.9346 9.09961 16.2065 12.3924 16.2065 16.4496C16.2065 18.143 15.6398 19.7071 14.6757 20.9537L12.9287 18.784C13.3202 18.096 13.548 17.3022 13.548 16.4496C13.548 13.8683 11.468 11.775 8.90305 11.775C6.33808 11.775 4.25806 13.8683 4.25806 16.4496C4.25806 19.0309 6.33808 21.1242 8.90305 21.1242C9.25946 21.1242 9.61003 21.083 9.94307 21.0066L11.7017 23.241C10.837 23.5997 9.89048 23.7996 8.90305 23.7996C4.87155 23.7996 1.59961 20.5068 1.59961 16.4496Z" fill="#798291"/>
<path d="M17.6029 23.7996L23.2996 9.12901H20.3665L15.1665 22.5178L10.4222 16.6084C10.2118 16.3496 9.8379 16.3085 9.57497 16.5143L8.56418 17.314C8.30125 17.5256 8.25451 17.9137 8.46485 18.1783L12.882 23.7996H17.6029Z" fill="#798291"/>
<path d="M17.6736 7.22542V6.22284H17.5211V6.06703H17.6736V5.94509C17.6736 5.87058 17.6795 5.80961 17.6912 5.76896C17.7088 5.71477 17.7381 5.67413 17.7792 5.64703C17.8202 5.61316 17.8789 5.59961 17.9551 5.59961C18.002 5.59961 18.0548 5.60638 18.1134 5.61993L18.09 5.78929C18.0548 5.78251 18.0196 5.77574 17.9903 5.77574C17.9375 5.77574 17.9023 5.78929 17.8789 5.81638C17.8554 5.84348 17.8495 5.8909 17.8495 5.95864V6.06703H18.0431V6.22284H17.8495V7.22542H17.6736Z" fill="#798291"/>
<path fill-rule="evenodd" clip-rule="evenodd" d="M1.59961 6.45316C1.59961 6.18896 1.66412 5.97896 1.78727 5.82993C1.91042 5.6809 2.06875 5.60638 2.26227 5.60638C2.39129 5.60638 2.50271 5.64025 2.60827 5.71477C2.70796 5.78251 2.79006 5.88412 2.84284 6.01283C2.89562 6.14154 2.92494 6.2838 2.92494 6.43961C2.92494 6.60219 2.89562 6.74445 2.84284 6.87316C2.78419 7.00187 2.70796 7.09671 2.6024 7.16445C2.49684 7.23219 2.38542 7.26606 2.26814 7.26606C2.13912 7.26606 2.02184 7.23219 1.91628 7.15767C1.81659 7.08316 1.73449 6.98832 1.68171 6.85961C1.62307 6.72412 1.59961 6.58864 1.59961 6.45316ZM1.78727 6.45316C1.78727 6.64283 1.83418 6.79864 1.92214 6.90703C2.01011 7.01541 2.12153 7.07638 2.26227 7.07638C2.39715 7.07638 2.51444 7.02219 2.6024 6.90703C2.69037 6.79187 2.73728 6.63606 2.73728 6.43283C2.73728 6.30412 2.71969 6.18896 2.67864 6.09412C2.64345 5.99929 2.58481 5.92477 2.51444 5.87058C2.44407 5.81638 2.3561 5.78929 2.26814 5.78929C2.13912 5.78929 2.0277 5.84348 1.93387 5.94509C1.84005 6.0467 1.78727 6.21606 1.78727 6.45316Z" fill="#798291"/>
<path d="M3.13605 7.22542V6.06703H3.28852V6.24316C3.32957 6.16187 3.36476 6.10767 3.39408 6.08058C3.42926 6.05348 3.46445 6.03993 3.5055 6.03993C3.56414 6.03993 3.62278 6.06025 3.68143 6.1009L3.62278 6.2838C3.58173 6.25671 3.54068 6.24316 3.49963 6.24316C3.46445 6.24316 3.42926 6.25671 3.39994 6.2838C3.37062 6.3109 3.34716 6.34477 3.33543 6.39219C3.31784 6.45993 3.30611 6.54122 3.30611 6.62251V7.22542H3.13605Z" fill="#798291"/>
<path fill-rule="evenodd" clip-rule="evenodd" d="M3.91014 7.35412L3.74594 7.32703C3.74594 7.44896 3.79285 7.5438 3.86322 7.60477C3.93359 7.66574 4.03329 7.69961 4.15057 7.69961C4.25026 7.69961 4.33237 7.67251 4.40274 7.63187C4.47311 7.59122 4.52589 7.53025 4.55521 7.45574C4.58453 7.37445 4.60212 7.25251 4.60212 7.06961V6.06703H4.44379V6.20929C4.36755 6.1009 4.26786 6.0467 4.15057 6.0467C4.05674 6.0467 3.98051 6.06703 3.916 6.12122C3.84563 6.17542 3.79872 6.24316 3.76353 6.338C3.72834 6.43283 3.71075 6.53445 3.71075 6.64283C3.71075 6.80542 3.74594 6.9409 3.82217 7.05606C3.89841 7.17122 4.00983 7.22542 4.14471 7.22542C4.25613 7.22542 4.34409 7.178 4.42033 7.07638C4.42033 7.20509 4.42033 7.28638 4.4086 7.32703C4.39101 7.39477 4.36169 7.44896 4.32064 7.48283C4.27959 7.51671 4.21508 7.53703 4.13884 7.53703C4.06847 7.53703 4.00983 7.51671 3.96878 7.48283C3.93359 7.45574 3.916 7.41509 3.91014 7.35412ZM3.96292 6.96122C3.91014 6.89348 3.88668 6.77832 3.88668 6.62929C3.88668 6.48703 3.916 6.38541 3.95705 6.31767C4.00983 6.24316 4.07434 6.20929 4.15057 6.20929C4.23267 6.20929 4.29718 6.24993 4.34996 6.31767C4.40274 6.38541 4.43206 6.4938 4.43206 6.63606C4.43206 6.78509 4.40274 6.89348 4.34996 6.96122C4.29718 7.02896 4.23267 7.06283 4.15644 7.06283C4.0802 7.06283 4.01569 7.02896 3.96292 6.96122Z" fill="#798291"/>
<path fill-rule="evenodd" clip-rule="evenodd" d="M5.50522 7.08316C5.44071 7.14413 5.38207 7.19154 5.32343 7.21187C5.26479 7.23896 5.20028 7.25251 5.13577 7.25251C5.02435 7.25251 4.94225 7.21864 4.88361 7.15767C4.82496 7.09671 4.79564 7.01542 4.79564 6.92058C4.79564 6.86638 4.80737 6.81219 4.83083 6.76477C4.85429 6.71735 4.88361 6.68348 4.91879 6.64961C4.95398 6.62251 4.99503 6.60219 5.04194 6.58864C5.07713 6.57509 5.12404 6.56832 5.19441 6.56155C5.32929 6.54122 5.43485 6.5209 5.49936 6.4938V6.43961C5.49936 6.35832 5.48176 6.30413 5.45244 6.27025C5.41139 6.22284 5.34689 6.20251 5.25892 6.20251C5.17682 6.20251 5.11818 6.21606 5.08299 6.24993C5.04781 6.2838 5.01849 6.338 5.00089 6.41929L4.83669 6.39219C4.85429 6.3109 4.87774 6.24316 4.91293 6.19574C4.94811 6.14832 4.99503 6.10767 5.0654 6.08058C5.13577 6.05348 5.20614 6.03993 5.29411 6.03993C5.38207 6.03993 5.44658 6.05348 5.50522 6.0738C5.558 6.09413 5.59905 6.128 5.62251 6.16187C5.64596 6.19574 5.66356 6.24316 5.67529 6.29735C5.68115 6.33122 5.68115 6.39218 5.68115 6.48023V6.74445C5.68115 6.92735 5.68701 7.04251 5.69288 7.08993C5.69874 7.13735 5.71633 7.18477 5.73393 7.23218L5.558 7.23219C5.52281 7.18477 5.51109 7.13735 5.50522 7.08316ZM5.49349 6.64961C5.42899 6.67671 5.34102 6.7038 5.21787 6.72413C5.1475 6.73767 5.10059 6.75122 5.07126 6.76477C5.04194 6.77832 5.01849 6.79864 5.00676 6.82574C4.98916 6.85284 4.9833 6.88671 4.9833 6.92058C4.9833 6.97477 5.00089 7.01542 5.03608 7.04929C5.07126 7.08316 5.11818 7.10348 5.18855 7.10348C5.25306 7.10348 5.3117 7.08993 5.36448 7.05606C5.41726 7.02219 5.45244 6.97477 5.4759 6.92058C5.49349 6.87316 5.50522 6.81219 5.50522 6.72413V6.64961H5.49349Z" fill="#798291"/>
<path d="M5.92745 6.06703V7.23219H6.09752V6.60219C6.09752 6.45316 6.12097 6.35154 6.17375 6.29735C6.22653 6.24316 6.29104 6.21606 6.36141 6.21606C6.40832 6.21606 6.44351 6.22961 6.4787 6.24993C6.51388 6.27025 6.53734 6.30413 6.54907 6.34477C6.56079 6.37864 6.56666 6.43961 6.56666 6.5209V7.22542H6.73672V6.51413C6.73672 6.42606 6.73086 6.35832 6.725 6.32445C6.71327 6.27025 6.69567 6.22283 6.67222 6.18219C6.64876 6.14154 6.61357 6.10767 6.56079 6.08058C6.51388 6.05348 6.45524 6.03993 6.39659 6.03993C6.26172 6.03993 6.15616 6.1009 6.07992 6.22961V6.06703H5.92745Z" fill="#798291"/>
<path d="M7.00647 5.85703V5.63348H7.17654V5.85703H7.00647Z" fill="#798291"/>
<path d="M7.00647 7.22542V6.06703H7.17654V7.22542H7.00647Z" fill="#798291"/>
<path d="M7.34074 7.06961V7.23219H8.22624V7.06284H7.76296C7.69259 7.06284 7.62222 7.06284 7.54599 7.06961L7.65154 6.93413L8.19692 6.20251V6.0738H7.37592V6.22961H7.78642C7.84506 6.22961 7.90958 6.22961 7.97994 6.22284L7.34074 7.06961Z" fill="#798291"/>
<path fill-rule="evenodd" clip-rule="evenodd" d="M9.05311 7.08316C8.9886 7.14413 8.92996 7.19154 8.87132 7.21187C8.81268 7.23896 8.74817 7.25251 8.68366 7.25251C8.57224 7.25251 8.49014 7.21864 8.4315 7.15767C8.37286 7.09671 8.34353 7.01542 8.34353 6.92058C8.34353 6.86638 8.35526 6.81219 8.37872 6.76477C8.40218 6.71735 8.4315 6.68348 8.46668 6.64961C8.50187 6.62251 8.54292 6.60219 8.58983 6.58864C8.62502 6.57509 8.67193 6.56832 8.7423 6.56155C8.87718 6.54122 8.98274 6.5209 9.04725 6.4938V6.43961C9.04725 6.35832 9.02965 6.30413 9.00033 6.27025C8.95928 6.22284 8.89478 6.20251 8.80681 6.20251C8.72471 6.20251 8.66607 6.21606 8.63088 6.24993C8.5957 6.2838 8.56638 6.338 8.54878 6.41929L8.38458 6.39219C8.40218 6.3109 8.42563 6.24316 8.46082 6.19574C8.49601 6.14832 8.54292 6.10767 8.61329 6.08058C8.6778 6.05348 8.75403 6.03993 8.842 6.03993C8.92996 6.03993 8.99447 6.05348 9.05311 6.0738C9.10589 6.09413 9.14694 6.128 9.1704 6.16187C9.19385 6.19574 9.21145 6.24316 9.22318 6.29735C9.22904 6.33122 9.22904 6.39217 9.22904 6.48021V6.74445C9.22904 6.92735 9.2349 7.04251 9.24077 7.08993C9.24663 7.13735 9.26423 7.18477 9.28182 7.23219H9.10589C9.0707 7.18477 9.05898 7.13735 9.05311 7.08316ZM9.03552 6.64961C8.97101 6.67671 8.88305 6.7038 8.7599 6.72413C8.68953 6.73767 8.64261 6.75122 8.61329 6.76477C8.58397 6.77832 8.56051 6.79864 8.54878 6.82574C8.53119 6.85284 8.52533 6.88671 8.52533 6.92058C8.52533 6.97477 8.54292 7.01542 8.5781 7.04929C8.61329 7.08316 8.6602 7.10348 8.73058 7.10348C8.79508 7.10348 8.85373 7.08993 8.9065 7.05606C8.95928 7.02219 8.99447 6.97477 9.01793 6.92058C9.03552 6.87316 9.04725 6.81219 9.04725 6.72413V6.64961H9.03552Z" fill="#798291"/>
<path d="M10.2905 6.83251L10.1263 6.80541C10.1145 6.90025 10.0794 6.98832 10.0383 7.03574C9.99726 7.08315 9.93861 7.10348 9.87411 7.10348C9.79201 7.10348 9.7275 7.06283 9.67472 6.99509C9.62194 6.92735 9.59848 6.81219 9.59848 6.65638C9.59848 6.50057 9.62781 6.38541 9.68058 6.31767C9.73923 6.24315 9.80373 6.20928 9.8917 6.20928C9.95034 6.20928 9.99726 6.22961 10.0383 6.27025C10.0794 6.3109 10.1028 6.37186 10.1204 6.44638L10.2846 6.41928C10.2611 6.30412 10.2201 6.20928 10.1497 6.14832C10.0794 6.08735 9.99139 6.05348 9.87997 6.05348C9.79201 6.05348 9.70991 6.0738 9.63953 6.12122C9.5633 6.16864 9.51052 6.24315 9.47533 6.33122C9.44015 6.41928 9.42256 6.53444 9.42256 6.65638C9.42256 6.85283 9.46361 7.00186 9.54571 7.10348C9.62781 7.20509 9.73923 7.25928 9.87411 7.25928C9.97966 7.25928 10.0735 7.21864 10.1497 7.14412C10.226 7.06961 10.2729 6.96799 10.2905 6.83251Z" fill="#798291"/>
<path d="M10.4429 5.85703V5.63348H10.613V5.85703H10.4429Z" fill="#798291"/>
<path d="M10.4429 7.22542V6.06703H10.613V7.22542H10.4429Z" fill="#798291"/>
<path fill-rule="evenodd" clip-rule="evenodd" d="M10.959 6.17541C10.8593 6.27702 10.8065 6.43283 10.8065 6.64961C10.8065 6.84606 10.8476 6.99509 10.9355 7.0967C11.0235 7.19832 11.1349 7.25251 11.2757 7.25251C11.3636 7.25251 11.4399 7.23219 11.5161 7.18477C11.5923 7.13735 11.6451 7.07638 11.6862 6.98832C11.7272 6.90025 11.7448 6.78509 11.7448 6.63606C11.7448 6.45315 11.7038 6.30412 11.6158 6.20251C11.5278 6.1009 11.4106 6.0467 11.2757 6.0467C11.1525 6.0467 11.047 6.08735 10.959 6.17541ZM11.0646 6.98154C11.0118 6.90702 10.9825 6.79864 10.9825 6.64961C10.9825 6.50057 11.0059 6.39219 11.0646 6.31767C11.1232 6.24315 11.1936 6.20928 11.2757 6.20928C11.3578 6.20928 11.434 6.24315 11.4868 6.31767C11.5396 6.39219 11.5689 6.50057 11.5689 6.64283C11.5689 6.79186 11.5454 6.90702 11.4868 6.98154C11.4281 7.05606 11.3578 7.08993 11.2757 7.08993C11.1936 7.08993 11.1232 7.05606 11.0646 6.98154Z" fill="#798291"/>
<path d="M11.305 5.61993L11.1818 5.92477H11.3226L11.5278 5.61993H11.305Z" fill="#798291"/>
<path d="M11.9442 6.06703H12.0967V6.22961C12.1729 6.1009 12.2785 6.03993 12.4133 6.03993C12.472 6.03993 12.5306 6.05348 12.5775 6.08058C12.6303 6.10767 12.6655 6.14154 12.689 6.18219C12.7124 6.22283 12.73 6.27025 12.7417 6.32445C12.7476 6.35832 12.7535 6.42606 12.7535 6.51413V7.22542H12.5893V6.5209C12.5893 6.43961 12.5834 6.37864 12.5717 6.34477C12.5599 6.30413 12.5365 6.27025 12.5013 6.24993C12.4661 6.22961 12.4309 6.21606 12.384 6.21606C12.3136 6.21606 12.2491 6.24316 12.1964 6.29735C12.1436 6.35154 12.1201 6.45316 12.1201 6.60219V7.23219H11.9442V6.06703Z" fill="#798291"/>
<path d="M14.7473 6.72412L14.5655 6.66993C14.5362 6.80541 14.4893 6.90703 14.4307 6.98154C14.3603 7.04929 14.2723 7.08316 14.1726 7.08316C14.0905 7.08316 14.0084 7.05606 13.9381 7.00864C13.8677 6.95445 13.8149 6.87993 13.7797 6.77832C13.7445 6.67671 13.7269 6.55477 13.7269 6.41929C13.7269 6.31767 13.7387 6.21606 13.768 6.11445C13.7973 6.01283 13.8501 5.93832 13.9205 5.87735C13.9908 5.81638 14.0788 5.78929 14.1844 5.78929C14.2782 5.78929 14.3544 5.81638 14.4131 5.87058C14.4776 5.918 14.5245 6.00606 14.5538 6.12122L14.7356 6.0738C14.6946 5.92477 14.63 5.80961 14.5362 5.72832C14.4365 5.64703 14.3251 5.60638 14.1844 5.60638C14.0612 5.60638 13.9498 5.63348 13.8501 5.70122C13.7504 5.76896 13.6683 5.8638 13.6155 5.98574C13.5627 6.10767 13.5334 6.24993 13.5334 6.41929C13.5334 6.56832 13.5569 6.71058 13.6038 6.84606C13.6507 6.98154 13.7211 7.07638 13.8149 7.1509C13.9087 7.22542 14.0319 7.25929 14.1785 7.25929C14.3192 7.25929 14.4424 7.21187 14.5421 7.1238C14.6418 7.02896 14.7063 6.90025 14.7473 6.72412Z" fill="#798291"/>
<path fill-rule="evenodd" clip-rule="evenodd" d="M15.6387 6.85284L15.8146 6.87993C15.7853 6.99509 15.7384 7.08993 15.6622 7.15767C15.5859 7.22542 15.4921 7.25251 15.3748 7.25251C15.2282 7.25251 15.1109 7.19832 15.0288 7.09671C14.9409 6.99509 14.8998 6.84606 14.8998 6.65638C14.8998 6.45993 14.9409 6.3109 15.0288 6.20251C15.1168 6.09413 15.2282 6.03993 15.3689 6.03993C15.5038 6.03993 15.6152 6.09412 15.6973 6.19574C15.7794 6.30412 15.8264 6.44638 15.8264 6.64284V6.69703H15.0816C15.0875 6.82574 15.1168 6.92058 15.1754 6.98832C15.2341 7.05606 15.2986 7.08993 15.3865 7.08993C15.451 7.08993 15.5038 7.06961 15.5449 7.03574C15.5742 7.00187 15.6094 6.9409 15.6387 6.85284ZM15.0757 6.54122H15.6328C15.627 6.44638 15.6035 6.37187 15.5683 6.32445C15.5156 6.24993 15.4452 6.20929 15.3572 6.20929C15.281 6.20929 15.2165 6.23638 15.1578 6.29735C15.0992 6.35832 15.0816 6.43961 15.0757 6.54122Z" fill="#798291"/>
<path d="M16.0199 6.06703V7.22542H16.1899V6.62251C16.1899 6.54122 16.2017 6.45993 16.2193 6.39219C16.231 6.34477 16.2544 6.3109 16.2838 6.2838C16.3131 6.25671 16.3483 6.24316 16.3835 6.24316C16.4245 6.24316 16.4656 6.25671 16.5066 6.2838L16.5653 6.1009C16.5066 6.06025 16.448 6.03993 16.3893 6.03993C16.3483 6.03993 16.3131 6.05348 16.2779 6.08058C16.2486 6.10767 16.2134 6.16187 16.1723 6.24316V6.06703H16.0199Z" fill="#798291"/>
<path d="M17.0403 7.05606L17.0637 7.23219C17.0168 7.24574 16.9758 7.25251 16.9347 7.25251C16.8702 7.25251 16.8233 7.23896 16.794 7.21864C16.7588 7.19832 16.7353 7.16445 16.7236 7.13057C16.7119 7.0967 16.7001 7.01541 16.7001 6.90025V6.23638H16.577V6.08057H16.7001V5.79606L16.8702 5.6809V6.08735H17.0403V6.24315H16.8702V6.92057C16.8702 6.97477 16.8761 7.01541 16.8819 7.02896C16.8878 7.04251 16.8995 7.05606 16.9112 7.06961C16.923 7.08315 16.9464 7.08315 16.9699 7.08315C16.9816 7.06283 17.0109 7.05606 17.0403 7.05606Z" fill="#798291"/>
<path d="M17.2045 5.63348V5.85703H17.3745V5.63348H17.2045Z" fill="#798291"/>
<path d="M17.2045 6.06703V7.22542H17.3745V6.06703H17.2045Z" fill="#798291"/>
<path d="M18.1721 5.63348V5.85703H18.3421V5.63348H18.1721Z" fill="#798291"/>
<path d="M18.1721 6.06703V7.22542H18.3421V6.06703H18.1721Z" fill="#798291"/>
<path d="M19.257 6.80541L19.4212 6.83251C19.4036 6.96799 19.3567 7.06961 19.2804 7.14412C19.2042 7.21864 19.1104 7.25928 19.0048 7.25928C18.8699 7.25928 18.7585 7.20509 18.6764 7.10348C18.5943 7.00186 18.5533 6.85283 18.5533 6.65638C18.5533 6.53444 18.5708 6.41928 18.606 6.33122C18.6412 6.24315 18.694 6.16864 18.7702 6.12122C18.8406 6.0738 18.9227 6.05348 19.0107 6.05348C19.1221 6.05348 19.2101 6.08735 19.2804 6.14832C19.3508 6.20928 19.3918 6.30412 19.4153 6.41928L19.2511 6.44638C19.2335 6.37186 19.2101 6.3109 19.169 6.27025C19.128 6.22961 19.081 6.20928 19.0224 6.20928C18.9344 6.20928 18.8699 6.24315 18.8113 6.31767C18.7585 6.38541 18.7292 6.50057 18.7292 6.65638C18.7292 6.81219 18.7526 6.92735 18.8054 6.99509C18.8582 7.06283 18.9227 7.10348 19.0048 7.10348C19.0693 7.10348 19.128 7.08315 19.169 7.03574C19.2101 6.98832 19.2394 6.90025 19.257 6.80541Z" fill="#798291"/>
<path fill-rule="evenodd" clip-rule="evenodd" d="M20.0369 7.21187C20.0955 7.19154 20.1542 7.14413 20.2187 7.08316C20.2246 7.13735 20.2363 7.18477 20.2715 7.23219H20.4474C20.4298 7.18478 20.4122 7.13734 20.4064 7.08993C20.4005 7.04251 20.3946 6.92735 20.3946 6.74445V6.48025C20.3946 6.39219 20.3946 6.33122 20.3888 6.29735C20.377 6.24316 20.3594 6.19574 20.336 6.16187C20.3125 6.128 20.2715 6.09413 20.2187 6.0738C20.1601 6.05348 20.0955 6.03993 20.0076 6.03993C19.9196 6.03993 19.8493 6.05348 19.7789 6.08058C19.7085 6.10767 19.6616 6.14832 19.6264 6.19574C19.5912 6.24316 19.5678 6.3109 19.5502 6.39219L19.7144 6.41929C19.732 6.338 19.7613 6.2838 19.7965 6.24993C19.8317 6.21606 19.8903 6.20251 19.9724 6.20251C20.0604 6.20251 20.1249 6.22284 20.1659 6.27025C20.1952 6.30413 20.2128 6.35832 20.2128 6.43961V6.4938C20.1483 6.5209 20.0428 6.54122 19.9079 6.56155C19.8375 6.56832 19.7906 6.57509 19.7554 6.58864C19.7085 6.60219 19.6675 6.62251 19.6323 6.64961C19.5971 6.68348 19.5678 6.71735 19.5443 6.76477C19.5209 6.81219 19.5091 6.86638 19.5091 6.92058C19.5091 7.01542 19.5384 7.09671 19.5971 7.15767C19.6557 7.21864 19.7378 7.25251 19.8492 7.25251C19.9138 7.25251 19.9783 7.23896 20.0369 7.21187ZM19.9313 6.72413C20.0545 6.7038 20.1425 6.67671 20.207 6.64961H20.2187V6.72413C20.2187 6.81219 20.207 6.87316 20.1894 6.92058C20.1659 6.97477 20.1307 7.02219 20.078 7.05606C20.0252 7.08993 19.9665 7.10348 19.902 7.10348C19.8317 7.10348 19.7847 7.08316 19.7496 7.04929C19.7144 7.01542 19.6968 6.97477 19.6968 6.92058C19.6968 6.88671 19.7026 6.85284 19.7202 6.82574C19.732 6.79864 19.7554 6.77832 19.7847 6.76477C19.8141 6.75122 19.861 6.73767 19.9313 6.72413Z" fill="#798291"/>
<path fill-rule="evenodd" clip-rule="evenodd" d="M21.2919 7.07638C21.2274 7.19154 21.1335 7.24574 21.0104 7.24574C20.9283 7.24574 20.8579 7.21864 20.7875 7.17122C20.723 7.11703 20.6703 7.04929 20.6292 6.96122C20.594 6.87316 20.5764 6.76477 20.5764 6.64961C20.5764 6.53445 20.594 6.42606 20.6292 6.338C20.6644 6.24316 20.7113 6.16864 20.7817 6.12122C20.8521 6.0738 20.9224 6.04671 21.0045 6.04671C21.0632 6.04671 21.1159 6.06025 21.1687 6.09412C21.2156 6.12122 21.2567 6.16187 21.286 6.20929V5.63348H21.4561V7.23219H21.2919V7.07638ZM20.7524 6.64961C20.7524 6.79864 20.7817 6.90703 20.8345 6.98155C20.8872 7.05606 20.9517 7.08993 21.028 7.08993C21.1042 7.08993 21.1629 7.05606 21.2156 6.98155C21.2684 6.90703 21.2919 6.80542 21.2919 6.66316C21.2919 6.50735 21.2626 6.38542 21.2098 6.31767C21.157 6.24316 21.0925 6.20929 21.0163 6.20929C20.94 6.20929 20.8755 6.24316 20.8286 6.31767C20.7817 6.38542 20.7524 6.50058 20.7524 6.64961Z" fill="#798291"/>
<path fill-rule="evenodd" clip-rule="evenodd" d="M22.1891 7.21187C22.2478 7.19154 22.3064 7.14413 22.3709 7.08316C22.3768 7.13735 22.3885 7.18477 22.4237 7.23219H22.5996C22.582 7.18478 22.5644 7.13734 22.5586 7.08993C22.5527 7.04251 22.5468 6.92735 22.5468 6.74445V6.48017C22.5468 6.39215 22.5468 6.33121 22.541 6.29735C22.5292 6.24316 22.5116 6.19574 22.4882 6.16187C22.4647 6.128 22.4237 6.09413 22.3709 6.0738C22.3123 6.05348 22.2478 6.03993 22.1598 6.03993C22.0718 6.03993 22.0015 6.05348 21.9311 6.08058C21.8607 6.10767 21.8138 6.14832 21.7786 6.19574C21.7434 6.24316 21.72 6.3109 21.7024 6.39219L21.8666 6.41929C21.8842 6.338 21.9135 6.2838 21.9487 6.24993C21.9839 6.21606 22.0425 6.20251 22.1246 6.20251C22.2126 6.20251 22.2771 6.22284 22.3181 6.27025C22.3474 6.30413 22.365 6.35832 22.365 6.43961V6.4938C22.3005 6.5209 22.195 6.54122 22.0601 6.56155C21.9897 6.56832 21.9428 6.57509 21.9076 6.58864C21.8607 6.60219 21.8197 6.62251 21.7845 6.64961C21.7493 6.68348 21.72 6.71735 21.6965 6.76477C21.6731 6.81219 21.6613 6.86638 21.6613 6.92058C21.6613 7.01542 21.6906 7.09671 21.7493 7.15767C21.8079 7.21864 21.89 7.25251 22.0015 7.25251C22.066 7.25251 22.1305 7.23896 22.1891 7.21187ZM22.0777 6.72413C22.2008 6.7038 22.2888 6.67671 22.3533 6.64961H22.365V6.72413C22.365 6.81219 22.3533 6.87316 22.3357 6.92058C22.3123 6.97477 22.2771 7.02219 22.2243 7.05606C22.1715 7.08993 22.1129 7.10348 22.0484 7.10348C21.978 7.10348 21.9311 7.08316 21.8959 7.04929C21.8607 7.01542 21.8431 6.97477 21.8431 6.92058C21.8431 6.88671 21.849 6.85284 21.8666 6.82574C21.8783 6.79864 21.9018 6.77832 21.9311 6.76477C21.9604 6.75122 22.0073 6.73767 22.0777 6.72413Z" fill="#798291"/>
<path d="M10.8812 3.12737C10.8812 3.73181 11.3829 4.22112 11.9954 4.22112C12.0829 4.22112 12.1646 4.21536 12.2579 4.18658L12.6779 4.71043C12.4679 4.79677 12.2462 4.84283 12.0071 4.84283C11.0446 4.84283 10.2629 4.07144 10.2629 3.12161C10.2629 2.17177 11.0446 1.40039 12.0071 1.40039C12.9696 1.40039 13.7512 2.17177 13.7512 3.12161C13.7512 3.52457 13.6112 3.88723 13.3837 4.18082L12.9637 3.67424C13.0571 3.51306 13.1096 3.32885 13.1096 3.12737C13.1096 2.51717 12.6137 2.02786 11.9954 2.02786C11.3771 2.02786 10.8812 2.52292 10.8812 3.12737Z" fill="#798291"/>
<path d="M7.90039 4.90039V1.4119H10.1871V2.00483H8.52456V2.77621H10.0762V3.36338H8.52456V4.31322H10.2512V4.90039H7.90039Z" fill="#798291"/>
<path d="M17.0004 4.86009H16.2304L15.9271 4.0772H14.3871L14.0837 4.84858H12.9521L11.8962 3.53032C11.8437 3.467 11.8554 3.3749 11.9196 3.32884L12.1587 3.13888C12.2229 3.09282 12.3104 3.09858 12.3629 3.1619L13.5004 4.54924L14.7429 1.4119H15.4429L14.6146 3.49578H15.6996L15.2446 2.29266L15.5946 1.4119L17.0004 4.86009Z" fill="#798291"/>
</g>
<defs>
<clipPath id="clip0_24521_13030">
<rect width="23.1" height="28" fill="white" transform="translate(0.900391)"/>
</clipPath>
</defs>
</svg>
