<?xml version="1.0" encoding="UTF-8"?>
<svg xmlns="http://www.w3.org/2000/svg" width="49" height="24" viewBox="0 0 49 24" fill="none">
  <g clip-path="url(#clip0_18767_55228)">
    <path d="M0.800781 0.241378C0.874872 0.0464803 1.02197 -0.000254986 1.21998 1.04419e-06C4.4988 0.00413691 7.77762 0.00277799 11.0564 0.00303402C12.0776 0.00311279 13.0724 0.170123 14.0358 0.504951C15.3219 0.95196 16.4593 1.64549 17.4432 2.59106C18.2237 3.34113 18.855 4.19889 19.3372 5.16635C19.7921 6.07918 20.0948 7.04106 20.2151 8.05441C20.2652 8.47649 20.2948 8.90343 20.2969 9.32834C20.3056 11.1236 20.2993 12.9189 20.3011 14.7142C20.3021 15.722 20.1449 16.7043 19.8224 17.6578C19.3626 19.0168 18.6288 20.2084 17.619 21.2307C16.6453 22.2164 15.5083 22.9471 14.2113 23.4282C13.5742 23.6645 12.9165 23.8221 12.2423 23.9136C11.3831 24.0303 10.5197 24.0021 9.6584 23.9805C8.78653 23.9587 7.93585 23.7852 7.11021 23.5019C5.94732 23.1029 4.90195 22.5001 3.97701 21.6879C3.05926 20.882 2.3277 19.9331 1.78169 18.842C1.34943 17.9784 1.05466 17.0688 0.920918 16.1113C0.871623 15.7584 0.851889 15.4013 0.817896 15.0461C0.815533 15.0214 0.80665 14.9973 0.800801 14.973C0.800781 10.0624 0.800781 5.1519 0.800781 0.241378ZM13.7921 14.0452C13.7921 14.2033 13.7911 14.3439 13.7923 14.4845C13.7956 14.8722 13.7722 15.2571 13.682 15.6359C13.4878 16.4514 13.0218 17.0349 12.2266 17.3332C11.84 17.4782 11.4366 17.5378 11.025 17.5566C10.4207 17.5841 9.8274 17.5371 9.25503 17.3259C8.58673 17.0793 8.11103 16.6276 7.82424 15.9765C7.58457 15.4324 7.50865 14.8546 7.50692 14.269C7.50223 12.6906 7.50719 11.1121 7.51678 9.53369C7.52003 8.99904 7.61486 8.47798 7.83582 7.98607C8.12135 7.35043 8.58941 6.90332 9.24394 6.66513C10.0177 6.38356 10.8149 6.35128 11.6163 6.51102C12.2738 6.64209 12.8015 6.98533 13.1717 7.55556C13.3515 7.83257 13.4811 8.13163 13.5792 8.44539C13.6749 8.75138 13.843 8.84834 14.1332 8.76206C14.9796 8.51038 15.8261 8.259 16.6724 8.00693C16.9924 7.9116 17.1076 7.71663 17.0144 7.39474C16.8618 6.86779 16.6402 6.36955 16.3611 5.89683C15.8597 5.04746 15.1956 4.36029 14.3413 3.86093C13.3797 3.29885 12.3293 3.052 11.2287 2.99955C10.6688 2.97286 10.1082 2.98559 9.54927 3.05182C8.97854 3.11945 8.41848 3.22988 7.8728 3.41158C6.9098 3.73225 6.06452 4.24027 5.37759 4.99385C4.71741 5.71808 4.2953 6.57062 4.04742 7.51377C3.8563 8.24098 3.78584 8.98209 3.7867 9.73219C3.78843 11.242 3.78849 12.7518 3.7867 14.2616C3.78574 15.0749 3.87182 15.8757 4.10067 16.6589C4.38916 17.6463 4.87394 18.5168 5.61669 19.2369C6.20475 19.807 6.89266 20.216 7.65681 20.4997C8.54403 20.829 9.46748 20.965 10.4089 20.9971C10.9904 21.017 11.5686 20.9826 12.1423 20.8842C13.1476 20.7117 14.0794 20.3578 14.91 19.7568C15.8873 19.0497 16.5717 18.123 16.9715 16.9869C17.2083 16.3139 17.3198 15.6176 17.3216 14.9049C17.3248 13.684 17.3225 12.463 17.3225 11.242C17.3224 10.9451 17.2017 10.82 16.9073 10.8199C15.0004 10.8192 13.0935 10.8192 11.1865 10.8198C10.8989 10.8199 10.7642 10.9559 10.7642 11.2416C10.764 12.0359 10.7639 12.8302 10.7642 13.6244C10.7643 13.9212 10.887 14.0451 11.18 14.0452C12.0038 14.0453 12.8276 14.0452 13.6514 14.0452C13.6936 14.0452 13.7357 14.0452 13.7921 14.0452Z" fill="#798291"></path>
    <path d="M31.8792 11.3006C32.3696 10.6123 33.2578 10.6668 33.5041 11.3015C33.612 11.2137 33.737 11.1079 33.8663 11.0076C34.0918 10.8326 34.3501 10.7752 34.6267 10.8294C34.9805 10.8988 35.221 11.1702 35.2842 11.5628C35.3065 11.7014 35.3197 11.843 35.3205 11.9833C35.3243 12.6167 35.3223 13.2502 35.3221 13.8837C35.322 14.0351 35.3024 14.0555 35.1537 14.0561C34.9666 14.0569 34.7795 14.0576 34.5925 14.0558C34.4724 14.0547 34.45 14.0306 34.4499 13.9099C34.4496 13.306 34.4506 12.7021 34.4487 12.0982C34.4484 12.0235 34.4413 11.9469 34.4235 11.8745C34.3634 11.6289 34.1246 11.5268 33.9107 11.6595C33.723 11.7761 33.6174 11.9549 33.6147 12.1742C33.6077 12.755 33.6124 13.336 33.6123 13.917C33.6122 14.0355 33.5947 14.055 33.4776 14.0558C33.2741 14.0573 33.0705 14.0536 32.8671 14.0574C32.772 14.0592 32.7436 14.0207 32.7441 13.9278C32.7474 13.3206 32.7466 12.7134 32.7447 12.1062C32.7445 12.028 32.7398 11.9475 32.7207 11.8723C32.6537 11.6089 32.3636 11.5154 32.1558 11.692C31.9995 11.8247 31.908 11.9942 31.9082 12.2058C31.9086 12.7703 31.9084 13.3348 31.9082 13.8994C31.9082 14.0449 31.897 14.056 31.7519 14.0562C31.555 14.0565 31.358 14.0547 31.1611 14.0568C31.0711 14.0578 31.0311 14.0228 31.0312 13.9286C31.033 12.9538 31.0328 11.979 31.0315 11.0041C31.0314 10.9183 31.0608 10.8772 31.1517 10.8786C31.3552 10.8818 31.5587 10.8811 31.7622 10.8789C31.8444 10.878 31.8837 10.9088 31.8801 10.995C31.8761 11.09 31.8792 11.1852 31.8792 11.3006Z" fill="#798291"></path>
    <path d="M41.8247 4.4373C42.3414 3.72843 43.2164 3.82021 43.4709 4.50771C43.504 4.46424 43.5314 4.42666 43.5605 4.39035C43.8177 4.06838 44.1369 3.88843 44.5623 3.9622C44.8697 4.01554 45.0692 4.20628 45.1657 4.49165C45.2204 4.65345 45.2543 4.82989 45.2568 5.00035C45.2669 5.68292 45.2611 6.36576 45.2609 7.04849C45.2608 7.16969 45.2401 7.18982 45.1164 7.19017C44.9293 7.19072 44.7422 7.19047 44.5551 7.19027C44.4103 7.19011 44.3954 7.17568 44.3953 7.03421C44.3952 6.43681 44.3963 5.83942 44.394 5.24204C44.3937 5.16094 44.3871 5.07702 44.3656 4.99936C44.2963 4.74989 44.0385 4.65664 43.8295 4.80868C43.6595 4.9323 43.5599 5.10422 43.5588 5.31859C43.5559 5.89299 43.5579 6.46742 43.5578 7.04183C43.5577 7.17597 43.544 7.19005 43.4131 7.19025C43.2162 7.19053 43.0193 7.19053 42.8223 7.19025C42.6993 7.19007 42.6884 7.17981 42.6883 7.05434C42.6879 6.43725 42.6887 5.82018 42.6871 5.20308C42.6869 5.13815 42.6805 5.07129 42.6642 5.00866C42.5936 4.73754 42.2908 4.64748 42.0845 4.8384C41.9372 4.97467 41.8516 5.1413 41.8528 5.35006C41.8559 5.90805 41.854 6.46606 41.8538 7.02407C41.8537 7.17975 41.8428 7.19023 41.6856 7.19031C41.4886 7.19041 41.2917 7.18879 41.0948 7.19104C41.0125 7.19196 40.9767 7.16087 40.9768 7.07488C40.9785 6.09346 40.9785 5.11204 40.9768 4.13061C40.9767 4.04445 41.0139 4.0128 41.095 4.01331C41.2985 4.01461 41.502 4.0152 41.7054 4.01306C41.7946 4.01211 41.8291 4.05256 41.8255 4.13948C41.8218 4.23064 41.8247 4.32212 41.8247 4.4373Z" fill="#798291"></path>
    <path d="M26.5486 12.4522C26.3437 12.4522 26.1473 12.4495 25.9509 12.4534C25.8624 12.4552 25.8264 12.4227 25.8283 12.3328C25.8322 12.1524 25.8314 11.9718 25.8286 11.7914C25.8274 11.707 25.8637 11.6738 25.9466 11.6741C26.3896 11.6755 26.8325 11.6745 27.2755 11.675C27.3405 11.6751 27.4051 11.679 27.4045 11.77C27.4022 12.1144 27.4233 12.4609 27.3926 12.8027C27.3319 13.478 26.8922 13.9527 26.2265 14.0828C25.7719 14.1716 25.3234 14.1389 24.9044 13.925C24.4776 13.7071 24.2437 13.3393 24.1842 12.8749C24.1456 12.5741 24.1523 12.2666 24.1512 11.9621C24.1501 11.6706 24.1435 11.3765 24.1776 11.088C24.2571 10.4166 24.6734 9.97695 25.3318 9.84196C25.7102 9.76436 26.0888 9.76381 26.4569 9.89486C26.9073 10.0552 27.1795 10.3876 27.3265 10.8314C27.3596 10.9313 27.3318 10.9776 27.2312 11.0086C27.0372 11.0683 26.8417 11.1228 26.6479 11.183C26.5359 11.2178 26.5114 11.1407 26.4853 11.0641C26.4139 10.8543 26.2801 10.7058 26.0608 10.6529C25.7959 10.5889 25.5361 10.605 25.3082 10.7681C25.1267 10.8981 25.0581 11.0993 25.0541 11.3109C25.0457 11.7535 25.0351 12.1976 25.0621 12.6388C25.0882 13.0654 25.3439 13.2819 25.773 13.2949C25.9791 13.3011 26.1833 13.2812 26.3467 13.1376C26.5543 12.9553 26.5598 12.7098 26.5486 12.4522Z" fill="#798291"></path>
    <path d="M45.6659 13.7697C45.3736 13.4823 45.3819 13.0814 45.7382 12.8697C45.6443 12.7755 45.5329 12.6912 45.4564 12.5825C45.0066 11.9434 45.381 11.051 46.1522 10.9183C46.2936 10.894 46.4387 10.883 46.5823 10.8816C47.035 10.877 47.4878 10.8797 47.9405 10.88C48.0596 10.88 48.0766 10.8962 48.0778 11.0158C48.0791 11.1503 48.0757 11.2849 48.0789 11.4193C48.0811 11.5103 48.045 11.5524 47.9514 11.5499C47.827 11.5465 47.7024 11.5491 47.5693 11.5491C47.576 11.566 47.5776 11.579 47.5848 11.587C47.9109 11.9501 47.8575 12.7109 47.1632 12.9625C46.9604 13.0361 46.7504 13.0606 46.5357 13.0598C46.4544 13.0595 46.3719 13.0645 46.292 13.0787C46.2249 13.0907 46.1701 13.1439 46.1868 13.21C46.1993 13.2597 46.2548 13.3296 46.2982 13.3351C46.463 13.356 46.6307 13.3537 46.7973 13.3616C46.9837 13.3703 47.1722 13.3658 47.3559 13.3934C47.7894 13.4586 48.0478 13.7001 48.1057 14.0699C48.1719 14.4929 47.9921 14.8516 47.6125 15.0509C47.3577 15.1847 47.0815 15.2345 46.798 15.248C46.4301 15.2655 46.0642 15.26 45.711 15.1329C45.3813 15.0143 45.1964 14.7801 45.1842 14.4596C45.173 14.1655 45.3136 13.9611 45.5642 13.8228C45.5951 13.8058 45.6267 13.7902 45.6659 13.7697ZM46.5483 11.5226C46.2288 11.5216 46.0527 11.6852 46.0504 11.9855C46.048 12.2781 46.243 12.4664 46.5502 12.4681C46.8529 12.4699 47.0359 12.2884 47.0351 11.9871C47.0344 11.6926 46.8573 11.5236 46.5483 11.5226ZM46.6411 14.0249C46.641 14.027 46.641 14.0291 46.6409 14.0312C46.5262 14.0312 46.4115 14.031 46.2969 14.0314C46.2839 14.0315 46.271 14.0349 46.258 14.0369C46.0888 14.0641 45.9856 14.1591 45.9719 14.3001C45.9583 14.4393 46.0395 14.5702 46.1974 14.6167C46.3273 14.655 46.4654 14.6761 46.6009 14.6826C46.7775 14.691 46.9551 14.6739 47.1156 14.5864C47.2484 14.514 47.3044 14.3996 47.281 14.2605C47.2619 14.1473 47.1778 14.0646 47.0327 14.0452C46.9035 14.0279 46.7717 14.0309 46.6411 14.0249Z" fill="#798291"></path>
    <path d="M33.9571 4.37508C34.2455 4.01436 34.6076 3.91084 35.0188 3.97731C35.4564 4.04807 35.7151 4.33274 35.8345 4.74548C35.8758 4.88836 35.8938 5.04173 35.8977 5.19095C35.9062 5.50896 35.9104 5.82799 35.8943 6.14549C35.8742 6.5436 35.732 6.88731 35.374 7.10631C34.9215 7.38318 34.3138 7.28538 33.9611 6.88233C33.955 6.87531 33.9472 6.86976 33.9243 6.84949C33.9243 6.93304 33.9243 7.00268 33.9243 7.07232C33.9243 7.14966 33.8971 7.19397 33.8082 7.19218C33.6048 7.18807 33.4013 7.18938 33.1979 7.19161C33.1155 7.1925 33.08 7.16116 33.0801 7.07533C33.0816 5.69387 33.0816 4.31241 33.0801 2.93096C33.08 2.84562 33.1152 2.81206 33.197 2.81253C33.407 2.81377 33.6171 2.81208 33.8271 2.81326C33.9384 2.81389 33.9566 2.83268 33.9568 2.94762C33.9575 3.38076 33.9571 3.8139 33.9571 4.24705C33.9571 4.28226 33.9571 4.31748 33.9571 4.37508ZM35.0191 5.62045C35.022 5.62045 35.0248 5.62043 35.0276 5.62043C35.0276 5.52206 35.0371 5.42252 35.0252 5.32558C35.0106 5.20665 34.9955 5.08261 34.9496 4.97386C34.8728 4.79196 34.6745 4.69725 34.4703 4.71753C34.2256 4.74186 34.0184 4.88454 33.9941 5.11351C33.9608 5.42723 33.95 5.74878 33.9799 6.06216C34.0074 6.35089 34.2458 6.50053 34.5563 6.48881C34.8214 6.4788 34.9839 6.32132 35.0166 6.02299C35.0312 5.89033 35.0191 5.75473 35.0191 5.62045Z" fill="#798291"></path>
    <path d="M36.7329 13.7137C36.7329 13.8055 36.7325 13.8798 36.7329 13.9541C36.7334 14.0229 36.7001 14.0567 36.631 14.0566C36.4209 14.0563 36.2109 14.0562 36.0008 14.0563C35.9234 14.0563 35.8921 14.0215 35.8922 13.9412C35.8938 12.5594 35.8938 11.1776 35.8922 9.79579C35.8921 9.70963 35.9277 9.67782 36.0093 9.67837C36.2193 9.67983 36.4294 9.68115 36.6394 9.67776C36.732 9.67627 36.7682 9.71213 36.7676 9.80578C36.7648 10.2456 36.7663 10.6854 36.7664 11.1252C36.7664 11.1572 36.7664 11.1891 36.7664 11.2479C36.8876 11.0798 37.0288 10.9745 37.1973 10.9057C37.8558 10.6371 38.5439 11.0103 38.6724 11.7101C38.6971 11.8447 38.7108 11.9833 38.7108 12.12C38.7108 12.461 38.723 12.8043 38.688 13.1423C38.6418 13.5894 38.4141 13.932 37.966 14.0673C37.5132 14.2041 37.1035 14.1167 36.7754 13.752C36.7675 13.7432 36.7578 13.736 36.7329 13.7137ZM37.8282 12.4903C37.8276 12.4903 37.8269 12.4903 37.8263 12.4902C37.8263 12.3428 37.8378 12.1943 37.8234 12.0482C37.8049 11.8599 37.7235 11.7014 37.535 11.6243C37.1996 11.487 36.832 11.6831 36.7868 12.0425C36.7575 12.2752 36.7683 12.5134 36.7682 12.7492C36.7682 12.8298 36.7808 12.913 36.8029 12.9907C36.8734 13.238 37.1075 13.3822 37.3828 13.3557C37.6481 13.3301 37.8064 13.1701 37.8265 12.8931C37.8363 12.7595 37.8282 12.6246 37.8282 12.4903Z" fill="#798291"></path>
    <path d="M35.0098 20.5884C35.0098 20.6224 35.0098 20.654 35.0098 20.6856C35.0098 21.1025 35.0082 21.5193 35.0111 21.9361C35.0117 22.0269 34.9828 22.0693 34.8873 22.0678C34.6772 22.0644 34.4672 22.0653 34.2571 22.0674C34.1714 22.0683 34.1327 22.036 34.1328 21.9456C34.1343 20.5869 34.1342 19.228 34.133 17.8693C34.1329 17.7827 34.1633 17.7442 34.2542 17.746C34.4576 17.75 34.6612 17.7497 34.8647 17.7461C34.9509 17.7446 34.9835 17.7811 34.9803 17.8635C34.9776 17.9345 34.9797 18.0057 34.9797 18.1011C35.1432 17.8978 35.3307 17.7699 35.5587 17.7149C36.1575 17.5707 36.8294 17.8379 36.9311 18.6594C36.9894 19.13 37.0045 19.6126 36.9163 20.0817C36.7316 21.0637 35.7683 21.1682 35.236 20.795C35.1566 20.7394 35.0913 20.6638 35.0098 20.5884ZM36.0855 19.3167C36.0815 19.3166 36.0774 19.3165 36.0733 19.3163C36.0733 19.1851 36.0809 19.0533 36.0716 18.9228C36.0574 18.7247 35.9804 18.5605 35.7814 18.4817C35.3989 18.3304 35.0214 18.584 35.0108 19.002C35.0055 19.2152 35.0068 19.4287 35.0117 19.6419C35.0133 19.7128 35.0285 19.7854 35.0496 19.8536C35.1258 20.1 35.3305 20.2351 35.5987 20.2224C35.8502 20.2105 36.0108 20.0744 36.0553 19.8062C36.0819 19.6457 36.0765 19.4801 36.0855 19.3167Z" fill="#798291"></path>
    <path d="M31.6515 18.0992C32.081 17.5951 32.7954 17.5357 33.2577 17.9502C33.4753 18.1453 33.5936 18.4028 33.6064 18.6872C33.6258 19.1155 33.6319 19.5466 33.6057 19.9742C33.5738 20.4924 33.2136 20.8971 32.7507 20.9712C32.3341 21.0379 31.971 20.9344 31.6868 20.5806C31.6847 20.6201 31.6818 20.6499 31.6817 20.6797C31.6815 21.0964 31.6818 21.5131 31.6814 21.9298C31.6813 22.0529 31.668 22.0665 31.5459 22.0669C31.3391 22.0677 31.1324 22.0647 30.9257 22.0682C30.8357 22.0697 30.8046 22.0318 30.8047 21.9447C30.806 20.5864 30.806 19.2279 30.8047 17.8695C30.8046 17.7828 30.834 17.7445 30.925 17.7463C31.1284 17.7504 31.3319 17.7499 31.5353 17.7465C31.6201 17.7451 31.6555 17.7792 31.6521 17.8629C31.6492 17.934 31.6515 18.0052 31.6515 18.0992ZM32.7585 19.3254C32.7537 19.3252 32.7489 19.3251 32.7442 19.3249C32.7442 19.1903 32.7523 19.0552 32.7425 18.9214C32.7218 18.6396 32.5784 18.4892 32.3071 18.449C32.0606 18.4124 31.8211 18.5437 31.731 18.7648C31.6554 18.9502 31.6616 19.7279 31.7401 19.9113C31.8318 20.1256 32.0413 20.2437 32.291 20.222C32.5264 20.2016 32.6811 20.0711 32.7237 19.8244C32.752 19.661 32.748 19.492 32.7585 19.3254Z" fill="#798291"></path>
    <path d="M25.4541 20.9902C25.163 20.984 24.8319 20.9275 24.5376 20.7275C24.2689 20.5449 24.1166 20.2847 24.0267 19.9815C24.0064 19.9132 24.0283 19.8604 24.1038 19.8361C24.2938 19.7749 24.4825 19.7097 24.6726 19.649C24.735 19.6291 24.8041 19.6214 24.8221 19.7078C24.8979 20.0702 25.1685 20.1878 25.4884 20.1957C25.6514 20.1997 25.81 20.1795 25.9514 20.0906C26.2093 19.9284 26.2156 19.6048 25.9473 19.4633C25.7113 19.3389 25.4562 19.2499 25.2076 19.1501C24.9695 19.0544 24.7405 18.9436 24.5374 18.7843C23.9945 18.3588 23.974 17.3842 24.6557 16.9276C25.0094 16.6907 25.4017 16.6312 25.8118 16.6721C26.3532 16.7261 26.7687 16.9727 26.9851 17.4956C27.046 17.6428 27.0327 17.6697 26.88 17.7249C26.7261 17.7806 26.5722 17.836 26.4184 17.8918C26.2977 17.9356 26.2711 17.9259 26.2154 17.8162C26.034 17.4592 25.5313 17.3332 25.2018 17.5621C24.9964 17.7048 24.9797 17.9949 25.1915 18.1215C25.3945 18.2429 25.6219 18.3236 25.8388 18.4217C26.0679 18.5253 26.3084 18.6091 26.5243 18.7351C27.2155 19.1383 27.1864 20.1039 26.691 20.5698C26.3982 20.8451 26.0016 20.9905 25.4541 20.9902Z" fill="#798291"></path>
    <path d="M25.1655 5.95337C25.1655 5.99845 25.1655 6.03359 25.1655 6.06874C25.1655 6.40345 25.1637 6.73816 25.1667 7.07285C25.1675 7.15849 25.1324 7.19153 25.0503 7.191C24.8305 7.18958 24.6106 7.18907 24.3908 7.19124C24.302 7.1921 24.2714 7.15409 24.2715 7.06584C24.2734 5.75327 24.2727 4.44071 24.2729 3.12812C24.273 3.01468 24.2909 2.99619 24.4052 2.99628C24.8842 2.99664 25.3633 2.99418 25.8423 3.00081C26.1049 3.00446 26.3554 3.06955 26.5801 3.20981C26.8815 3.39786 27.057 3.67437 27.112 4.02222C27.1625 4.34133 27.1671 4.66446 27.1042 4.98146C26.9968 5.52174 26.5985 5.87064 26.0187 5.93092C25.7782 5.95593 25.5341 5.94705 25.2917 5.95325C25.2532 5.95422 25.2147 5.95337 25.1655 5.95337ZM25.1698 5.14589C25.21 5.14589 25.2393 5.14597 25.2686 5.14587C25.4293 5.14542 25.5903 5.15214 25.7505 5.1429C26.0515 5.12553 26.202 4.99105 26.2322 4.69156C26.2491 4.52386 26.2415 4.3506 26.2202 4.18296C26.1991 4.01623 26.0961 3.89296 25.9308 3.84246C25.6815 3.76632 25.4261 3.81694 25.1698 3.80179C25.1698 4.25709 25.1698 4.6952 25.1698 5.14589Z" fill="#798291"></path>
    <path d="M40.1878 19.3415C40.1729 19.5733 40.1832 19.8102 40.138 20.0359C40.0264 20.5938 39.6291 20.9276 39.0294 20.9726C38.8031 20.9895 38.5672 20.9869 38.346 20.9422C37.7577 20.8235 37.4279 20.4433 37.39 19.8447C37.3687 19.5088 37.3701 19.1688 37.3942 18.833C37.4412 18.1804 37.8588 17.7659 38.5102 17.6926C38.7696 17.6635 39.028 17.6686 39.2807 17.7368C39.8283 17.8847 40.1648 18.3248 40.1735 18.8979C40.1758 19.0455 40.1739 19.1931 40.1739 19.3407C40.1785 19.341 40.1831 19.3412 40.1878 19.3415ZM39.3076 19.3445C39.3066 19.3445 39.3055 19.3445 39.3044 19.3445C39.3044 19.2101 39.3154 19.0745 39.3007 18.9417C39.2899 18.8436 39.2622 18.7397 39.213 18.6552C39.1078 18.4742 38.8673 18.4018 38.6293 18.4594C38.4202 18.51 38.2778 18.6664 38.2658 18.9054C38.2514 19.193 38.2512 19.4825 38.2653 19.7702C38.277 20.008 38.4046 20.1584 38.6133 20.2025C38.9871 20.2816 39.306 20.1339 39.3076 19.6789C39.308 19.5674 39.3076 19.4559 39.3076 19.3445Z" fill="#798291"></path>
    <path d="M29.7715 5.60726C29.7904 5.3695 29.7889 5.12791 29.8327 4.8948C29.9159 4.4512 30.1914 4.15848 30.6208 4.02596C31.0231 3.9018 31.4313 3.90598 31.8271 4.05374C32.2803 4.22294 32.5262 4.57073 32.564 5.04247C32.593 5.40367 32.5917 5.77029 32.5677 6.1321C32.5271 6.7436 32.1362 7.14308 31.529 7.23177C31.2677 7.26994 31.0066 7.26925 30.7471 7.21426C30.1576 7.08932 29.8005 6.65662 29.7892 6.05133C29.7864 5.9038 29.7888 5.75619 29.7888 5.6086C29.783 5.60814 29.7773 5.60771 29.7715 5.60726ZM31.7067 5.61196C31.7087 5.61196 31.7106 5.61196 31.7125 5.61194C31.7125 5.4972 31.7219 5.38144 31.7098 5.268C31.6985 5.16236 31.6819 5.05063 31.6365 4.95666C31.5429 4.7632 31.3212 4.67674 31.081 4.71726C30.8553 4.75535 30.698 4.89406 30.6813 5.12647C30.6594 5.43268 30.6509 5.74274 30.6734 6.04844C30.6962 6.35951 30.8888 6.49483 31.2236 6.4882C31.507 6.48258 31.6796 6.32158 31.7048 6.02447C31.7164 5.88791 31.7067 5.74953 31.7067 5.61196Z" fill="#798291"></path>
    <path d="M38.6176 5.87156C38.5578 6.27174 38.7669 6.5386 39.1282 6.54636C39.2066 6.54805 39.2861 6.54687 39.3636 6.53637C39.5622 6.50949 39.6969 6.39331 39.7821 6.21665C39.8241 6.12968 39.8837 6.1154 39.966 6.15822C40.1114 6.23377 40.257 6.30884 40.4039 6.3813C40.4895 6.42352 40.5039 6.48204 40.4653 6.56621C40.3269 6.86829 40.089 7.05759 39.7812 7.16095C39.384 7.29432 38.9796 7.30312 38.5841 7.16568C38.0643 6.98502 37.8055 6.59628 37.7815 6.056C37.7674 5.73854 37.7673 5.41894 37.7867 5.10188C37.8251 4.47334 38.2472 4.04299 38.8744 3.96562C39.1814 3.92774 39.4846 3.93542 39.7744 4.05381C40.2032 4.22901 40.4316 4.56285 40.4825 5.01345C40.5078 5.23728 40.4979 5.46524 40.5007 5.69138C40.5024 5.82902 40.4643 5.8678 40.3273 5.87085C40.1961 5.87379 40.0648 5.87156 39.9336 5.87156C39.53 5.87158 39.1264 5.87156 38.7228 5.87156C38.6872 5.87156 38.6517 5.87156 38.6176 5.87156ZM39.6899 5.29912C39.7306 5.04648 39.6477 4.83253 39.4717 4.72841C39.2786 4.61418 38.9675 4.62661 38.7998 4.75527C38.6465 4.87285 38.5661 5.11808 38.6211 5.29912C38.9778 5.29912 39.3343 5.29912 39.6899 5.29912Z" fill="#798291"></path>
    <path d="M29.3777 20.4955C29.1842 20.7416 28.967 20.9007 28.6855 20.9637C28.1216 21.0897 27.6579 20.7912 27.5485 20.2242C27.525 20.1027 27.5126 19.9772 27.512 19.8535C27.5084 19.2006 27.5102 18.5476 27.5104 17.8946C27.5104 17.762 27.5249 17.7474 27.6569 17.7472C27.857 17.7468 28.0572 17.7464 28.2574 17.7473C28.3704 17.7478 28.3891 17.7664 28.3892 17.8794C28.3896 18.4898 28.3891 19.1001 28.3899 19.7104C28.3899 19.7659 28.3894 19.823 28.4013 19.8768C28.4706 20.1914 28.822 20.3035 29.0916 20.0923C29.2608 19.9598 29.3616 19.7892 29.3596 19.562C29.3547 19.0042 29.358 18.4463 29.3581 17.8885C29.3581 17.7587 29.3688 17.7476 29.4983 17.7472C29.6985 17.7467 29.8987 17.7496 30.0988 17.746C30.1918 17.7444 30.226 17.7809 30.2258 17.8743C30.2238 18.8488 30.224 19.8234 30.2256 20.7979C30.2257 20.8833 30.2006 20.9246 30.1074 20.9225C29.9041 20.918 29.7005 20.9187 29.4972 20.9222C29.4063 20.9238 29.3737 20.8839 29.377 20.7976C29.3804 20.7067 29.3777 20.6155 29.3777 20.4955Z" fill="#798291"></path>
    <path d="M29.6312 12.1533C29.6212 12.0227 29.6209 11.8951 29.5995 11.7712C29.5753 11.6316 29.4771 11.5541 29.3409 11.5206C29.0644 11.4526 28.8848 11.5318 28.7619 11.7864C28.7284 11.8558 28.6904 11.874 28.6155 11.853C28.4265 11.8 28.2363 11.7506 28.0446 11.7092C27.9527 11.6893 27.9366 11.6466 27.957 11.5634C28.0347 11.2459 28.2417 11.0415 28.5366 10.9319C28.9678 10.7715 29.4094 10.7591 29.8447 10.9159C30.2438 11.0596 30.442 11.367 30.4585 11.7796C30.4761 12.2184 30.4677 12.6583 30.4695 13.0977C30.4706 13.37 30.4706 13.6423 30.4692 13.9145C30.4686 14.0386 30.449 14.0568 30.3258 14.0572C30.1487 14.0578 29.9715 14.0582 29.7944 14.057C29.6764 14.0562 29.6569 14.0357 29.6564 13.9204C29.6561 13.8397 29.6564 13.7591 29.6564 13.648C29.5279 13.8293 29.3869 13.9507 29.2114 14.0321C28.7239 14.2581 28.1155 14.0606 27.9009 13.6044C27.736 13.2539 27.7871 12.7871 28.023 12.5311C28.1726 12.3687 28.3687 12.2878 28.578 12.2356C28.8726 12.1623 29.1724 12.1431 29.4749 12.1531C29.5204 12.1546 29.566 12.1533 29.6312 12.1533ZM29.6105 12.6893C29.3667 12.683 29.1214 12.6816 28.8837 12.7561C28.7022 12.8131 28.6139 12.9507 28.633 13.1292C28.6511 13.2976 28.763 13.3935 28.95 13.4219C29.3075 13.4764 29.7159 13.1665 29.6105 12.6893Z" fill="#798291"></path>
    <path d="M42.9661 11.3081C43.1667 11.0489 43.3976 10.889 43.6951 10.8301C44.2395 10.7224 44.6945 11.0267 44.7944 11.5748C44.8183 11.7062 44.831 11.8415 44.8318 11.975C44.8355 12.618 44.8336 13.2611 44.8334 13.9042C44.8333 14.0385 44.8153 14.0564 44.6793 14.0568C44.489 14.0574 44.2987 14.0574 44.1084 14.0568C43.9755 14.0565 43.9613 14.0428 43.9612 13.9108C43.9609 13.3071 43.9616 12.7035 43.9603 12.0998C43.9601 12.0347 43.9579 11.9673 43.9417 11.9049C43.8468 11.5403 43.454 11.5458 43.2471 11.7139C43.0854 11.8451 42.9906 12.0106 42.9931 12.2314C42.9994 12.7891 42.9953 13.3469 42.995 13.9046C42.995 14.0406 42.9786 14.0566 42.8416 14.0569C42.6448 14.0572 42.4479 14.0581 42.2511 14.0564C42.1404 14.0555 42.1193 14.0328 42.1193 13.9232C42.1191 12.952 42.1191 11.9809 42.1193 11.0098C42.1194 10.8961 42.1353 10.8808 42.2515 10.8805C42.4451 10.8799 42.6387 10.8799 42.8323 10.8805C42.9494 10.8808 42.9654 10.8978 42.966 11.0197C42.9664 11.1072 42.9661 11.1948 42.9661 11.3081Z" fill="#798291"></path>
    <path d="M44.3691 18.4778C44.3691 18.9565 44.3645 19.4189 44.3714 19.8811C44.3741 20.0629 44.4578 20.1385 44.6408 20.1545C44.7385 20.1631 44.8373 20.1634 44.9355 20.1611C45.0186 20.159 45.0559 20.1913 45.0548 20.2761C45.0523 20.4565 45.0583 20.6372 45.0503 20.8173C45.0488 20.8523 44.9993 20.9147 44.9724 20.9145C44.727 20.9126 44.4764 20.9284 44.2377 20.8837C43.7592 20.7941 43.5222 20.4843 43.5187 19.9951C43.5154 19.5292 43.518 19.0633 43.518 18.5973C43.518 18.5618 43.518 18.5261 43.518 18.4777C43.4049 18.4777 43.2978 18.4744 43.191 18.4787C43.0999 18.4824 43.058 18.4491 43.0607 18.3537C43.0648 18.2029 43.0645 18.0518 43.0607 17.901C43.0585 17.8093 43.0935 17.7679 43.1877 17.7714C43.2986 17.7754 43.4098 17.7723 43.5344 17.7723C43.5344 17.6669 43.5322 17.5696 43.535 17.4723C43.5393 17.3198 43.5472 17.1673 43.5535 17.0147C43.7093 17.0069 43.865 16.998 44.0208 16.9917C44.0896 16.9889 44.1586 16.9911 44.2275 16.9912C44.3623 16.9916 44.3679 16.9969 44.368 17.128C44.3682 17.3375 44.3681 17.5469 44.3681 17.7723C44.5278 17.7723 44.6805 17.7723 44.8331 17.7723C45.0541 17.7723 45.0541 17.7723 45.0541 17.9938C45.0541 18.1021 45.0543 18.2103 45.0541 18.3186C45.0538 18.4648 45.0414 18.4776 44.8992 18.4777C44.726 18.4779 44.5529 18.4778 44.3691 18.4778Z" fill="#798291"></path>
    <path d="M37.2842 4.99722C37.2842 5.67326 37.2843 6.34928 37.2841 7.02531C37.2841 7.17736 37.2719 7.18953 37.124 7.18966C36.9304 7.18986 36.7368 7.19008 36.5432 7.18957C36.4294 7.18927 36.4085 7.16983 36.4084 7.06002C36.4081 5.68498 36.4081 4.30994 36.4084 2.93492C36.4085 2.82483 36.4293 2.80541 36.5429 2.80513C36.7431 2.80462 36.9433 2.80452 37.1434 2.80517C37.2663 2.80556 37.2838 2.82293 37.2839 2.94945C37.2845 3.63203 37.2842 4.31462 37.2842 4.99722Z" fill="#798291"></path>
    <path d="M40.0957 11.8621C40.0957 12.5448 40.0958 13.2275 40.0956 13.9103C40.0956 14.0351 40.0769 14.0563 39.9569 14.0571C39.7567 14.0586 39.5564 14.0588 39.3562 14.057C39.2445 14.056 39.2229 14.0336 39.2229 13.9243C39.2226 12.5522 39.2226 11.1802 39.2229 9.80818C39.2229 9.69007 39.2374 9.67634 39.3526 9.67611C39.5561 9.67569 39.7596 9.67573 39.9631 9.67609C40.0849 9.6763 40.0955 9.68717 40.0956 9.81387C40.0958 10.4966 40.0957 11.1793 40.0957 11.8621Z" fill="#798291"></path>
    <path d="M28.4314 4.47594C28.6069 4.21581 28.833 4.04547 29.1391 3.9921C29.2193 3.97813 29.3021 3.97794 29.3837 3.97479C29.4557 3.97201 29.492 4.00762 29.4916 4.0821C29.4905 4.27891 29.4913 4.47576 29.4912 4.67257C29.4911 4.75849 29.4507 4.7945 29.3625 4.79186C29.1255 4.78475 28.8952 4.81277 28.7052 4.97297C28.5559 5.09888 28.4711 5.25628 28.4727 5.45982C28.4766 5.98793 28.4741 6.5161 28.4739 7.04425C28.4738 7.17857 28.4622 7.18976 28.3281 7.18985C28.128 7.18999 27.9278 7.18741 27.7278 7.19096C27.6344 7.19261 27.5998 7.1545 27.6 7.06217C27.6016 6.0879 27.6019 5.11361 27.5996 4.13934C27.5994 4.04474 27.635 4.01051 27.7271 4.01219C27.9205 4.01569 28.1141 4.01502 28.3076 4.01246C28.3941 4.01132 28.435 4.04431 28.4322 4.13419C28.4287 4.24799 28.4314 4.362 28.4314 4.47594Z" fill="#798291"></path>
    <path d="M41.5052 18.2046C41.6594 17.9867 41.8448 17.8204 42.0999 17.7523C42.2153 17.7214 42.3387 17.7191 42.4589 17.7078C42.526 17.7015 42.5627 17.7338 42.5623 17.8057C42.5611 18.0092 42.5615 18.2126 42.5621 18.4161C42.5624 18.4897 42.5286 18.5168 42.454 18.5225C42.3078 18.5335 42.1599 18.5451 42.0173 18.5771C41.7768 18.631 41.5367 18.907 41.5445 19.2034C41.5582 19.7281 41.5484 20.2534 41.5483 20.7785C41.5482 20.9113 41.5398 20.9198 41.4101 20.9199C41.2034 20.9201 40.9966 20.9179 40.7899 20.921C40.7099 20.9223 40.6777 20.8919 40.6778 20.8116C40.679 19.8238 40.679 18.8361 40.6777 17.8483C40.6776 17.7767 40.7071 17.7458 40.7764 17.7459C40.9864 17.7463 41.1964 17.7464 41.4064 17.746C41.4782 17.7459 41.5055 17.7849 41.5053 17.8516C41.505 17.9693 41.5052 18.0869 41.5052 18.2046Z" fill="#798291"></path>
    <path d="M41.5463 12.4731C41.5463 12.9551 41.5464 13.4372 41.5462 13.9192C41.5461 14.0325 41.5264 14.0554 41.4183 14.0564C41.215 14.0581 41.0116 14.0583 40.8083 14.0562C40.6896 14.055 40.674 14.037 40.674 13.9175C40.6738 12.9534 40.6738 11.9893 40.674 11.0252C40.674 10.8931 40.6873 10.8804 40.821 10.8803C41.021 10.8801 41.2211 10.8832 41.4211 10.879C41.5154 10.877 41.548 10.9148 41.5475 11.0073C41.5449 11.4959 41.5463 11.9845 41.5463 12.4731Z" fill="#798291"></path>
    <path d="M41.1065 10.4622C41.0081 10.4622 40.9097 10.4634 40.8113 10.4619C40.7084 10.4602 40.6739 10.4279 40.6728 10.3269C40.6708 10.1531 40.6727 9.97926 40.6721 9.80541C40.6717 9.71878 40.7177 9.67893 40.8 9.6785C41.0066 9.67744 41.2132 9.67763 41.4198 9.67838C41.4984 9.67866 41.5432 9.71929 41.5439 9.79862C41.5455 9.979 41.5445 10.1594 41.5444 10.3398C41.5444 10.4217 41.4985 10.4597 41.4214 10.4612C41.3165 10.4633 41.2115 10.4622 41.1065 10.4622C41.1065 10.462 41.1065 10.4623 41.1065 10.4622Z" fill="#798291"></path>
  </g>
  <defs>
    <clipPath id="clip0_18767_55228">
      <rect width="48" height="24" fill="white" transform="translate(0.800781)"></rect>
    </clipPath>
  </defs>
</svg>
